<svg width="11" height="14" viewBox="0 0 11 14" fill="none" xmlns="http://www.w3.org/2000/svg">
<path d="M5.5 13.1668C8.245 13.1668 10.5 10.9915 10.5 8.1995C10.5 7.51416 10.465 6.7795 10.085 5.6375C10.0136 5.42294 9.95293 5.24349 9.8988 5.08885C9.73108 4.60968 8.77099 5.04735 8.422 5.41605V5.41605C8.12189 5.7331 7.76417 5.24584 7.62874 4.83083C7.38556 4.08567 6.99393 3.09283 6.506 2.37783C6.19977 1.92941 5.85273 1.53813 5.50362 1.19578C4.90141 0.605248 3.8232 1.10097 3.6253 1.92086C3.5098 2.39935 3.36271 2.83813 3.195 3.1535C2.783 3.9285 2.70567 3.95683 2.19067 4.5335C1.676 5.11016 1.43967 5.2885 1.009 5.9885C0.578667 6.6885 0.5 7.62083 0.5 8.30616C0.5 11.0982 2.755 13.1668 5.5 13.1668Z" stroke="#FD3250" stroke-linejoin="round"/>
</svg>
