<svg width="123" height="70" viewBox="0 0 123 70" fill="none" xmlns="http://www.w3.org/2000/svg">
<g clip-path="url(#clip0_131_12874)">
<mask id="mask0_131_12874" style="mask-type:luminance" maskUnits="userSpaceOnUse" x="0" y="0" width="123" height="70">
<path d="M123 0.5H0V69.5H123V0.5Z" fill="white"/>
</mask>
<g mask="url(#mask0_131_12874)">
<mask id="mask1_131_12874" style="mask-type:luminance" maskUnits="userSpaceOnUse" x="3" y="42" width="13" height="14">
<path d="M3.24487 42.9951H15.6089V55.3256H3.24487V42.9951Z" fill="white"/>
</mask>
<g mask="url(#mask1_131_12874)">
<g opacity="0.423223">
<path d="M12.186 49.1603C12.186 50.68 10.9508 51.9118 9.42701 51.9118C7.90314 51.9118 6.66797 50.68 6.66797 49.1603C6.66797 47.6407 7.90314 46.4089 9.42701 46.4089C10.9508 46.4089 12.186 47.6407 12.186 49.1603Z" fill="#FFD20B"/>
</g>
</g>
<mask id="mask2_131_12874" style="mask-type:luminance" maskUnits="userSpaceOnUse" x="48" y="-6" width="14" height="13">
<path d="M48.7769 -5.88188H61.0769V6.38479H48.7769V-5.88188Z" fill="white"/>
</mask>
<g mask="url(#mask2_131_12874)">
<g opacity="0.423223">
<path d="M57.6716 0.251451C57.6716 1.76319 56.4427 2.98863 54.9269 2.98863C53.4109 2.98863 52.1821 1.76319 52.1821 0.251451C52.1821 -1.26029 53.4109 -2.48573 54.9269 -2.48573C56.4427 -2.48573 57.6716 -1.26029 57.6716 0.251451Z" fill="#FFD20B"/>
</g>
</g>
<mask id="mask3_131_12874" style="mask-type:luminance" maskUnits="userSpaceOnUse" x="11" y="-4" width="13" height="13">
<path d="M11.3499 -3.55858H23.4577V8.51642H11.3499V-3.55858Z" fill="white"/>
</mask>
<g mask="url(#mask3_131_12874)">
<g opacity="0.423223">
<path d="M20.1056 2.47892C20.1056 3.96704 18.8959 5.17333 17.4038 5.17333C15.9115 5.17333 14.7019 3.96704 14.7019 2.47892C14.7019 0.990792 15.9115 -0.2155 17.4038 -0.2155C18.8959 -0.2155 20.1056 0.990792 20.1056 2.47892Z" fill="#FFD20B"/>
</g>
</g>
<mask id="mask4_131_12874" style="mask-type:luminance" maskUnits="userSpaceOnUse" x="23" y="64" width="10" height="10">
<path d="M26.7764 64.7923L32.2645 68.0802L28.9624 73.5596L23.4742 70.2717L26.7764 64.7923Z" fill="white"/>
</mask>
<g mask="url(#mask4_131_12874)">
<g opacity="0.423223">
<path d="M29.141 69.1856L29.1978 67.9442C29.2086 67.7062 29.024 67.5047 28.7854 67.4941C28.5467 67.4836 28.3444 67.668 28.3335 67.906L28.314 68.3319C28.3036 68.5606 28.1158 68.7416 27.8862 68.7441L27.026 68.7537C26.7964 68.7562 26.6085 68.9372 26.5981 69.1659L26.5412 70.4074C26.5304 70.6454 26.715 70.847 26.9537 70.8576C27.1924 70.8682 27.3947 70.6837 27.4056 70.4457L27.4251 70.0197C27.4356 69.7909 27.6234 69.61 27.853 69.6074L28.7132 69.5978C28.9428 69.5953 29.1305 69.4143 29.141 69.1856Z" fill="#FFF8EE"/>
</g>
</g>
<mask id="mask5_131_12874" style="mask-type:luminance" maskUnits="userSpaceOnUse" x="20" y="6" width="7" height="8">
<path d="M23.4226 6.98221L26.6083 9.94485L23.637 13.1225L20.4514 10.1598L23.4226 6.98221Z" fill="white"/>
</mask>
<g mask="url(#mask5_131_12874)">
<g opacity="0.423223">
<path d="M24.3744 10.2386L24.5878 9.42072C24.6286 9.26389 24.5343 9.10368 24.3771 9.06292C24.2198 9.02215 24.0592 9.11627 24.0182 9.27309L23.9451 9.55368C23.9058 9.70438 23.7553 9.79827 23.6022 9.76748L23.0287 9.65225C22.8756 9.62146 22.7251 9.71532 22.6858 9.86605L22.4723 10.684C22.4315 10.8409 22.5258 11.0011 22.683 11.0418C22.8403 11.0826 23.0009 10.9885 23.0419 10.8317L23.1151 10.551C23.1544 10.4003 23.305 10.3064 23.458 10.3372L24.0315 10.4524C24.1846 10.4832 24.3351 10.3893 24.3744 10.2386Z" fill="#FFF8EE"/>
</g>
</g>
<mask id="mask6_131_12874" style="mask-type:luminance" maskUnits="userSpaceOnUse" x="108" y="50" width="6" height="6">
<path d="M112.351 50.2265L113.844 54.312L109.754 55.7949L108.261 51.7093L112.351 50.2265Z" fill="white"/>
</mask>
<g mask="url(#mask6_131_12874)">
<g opacity="0.423223">
<path d="M111.72 53.5613L112.282 52.9287C112.389 52.8074 112.378 52.6216 112.256 52.5138C112.135 52.4059 111.949 52.4168 111.841 52.5381L111.649 52.7551C111.545 52.8716 111.369 52.887 111.246 52.7899L110.787 52.4264C110.665 52.3293 110.488 52.3446 110.385 52.4612L109.823 53.0938C109.716 53.2151 109.727 53.4009 109.849 53.5087C109.97 53.6166 110.156 53.6057 110.264 53.4844L110.456 53.2673C110.56 53.1508 110.737 53.1355 110.859 53.2325L111.318 53.5961C111.44 53.6931 111.617 53.6778 111.72 53.5613Z" fill="#FFF8EE"/>
</g>
</g>
<mask id="mask7_131_12874" style="mask-type:luminance" maskUnits="userSpaceOnUse" x="74" y="63" width="7" height="7">
<path d="M80.2222 64.9623L78.8011 69.0733L74.6854 67.6617L76.1065 63.5507L80.2222 64.9623Z" fill="white"/>
</mask>
<g mask="url(#mask7_131_12874)">
<g opacity="0.423223">
<path d="M77.6253 67.1574L78.4615 67.0181C78.6218 66.9913 78.7304 66.84 78.704 66.6801C78.6775 66.5201 78.5261 66.4122 78.3657 66.4389L78.0789 66.4867C77.9248 66.5124 77.7777 66.4135 77.7438 66.2615L77.6167 65.6918C77.5828 65.5398 77.4357 65.4409 77.2816 65.4666L76.4453 65.6059C76.285 65.6326 76.1764 65.7839 76.2028 65.9439C76.2292 66.1038 76.3807 66.2118 76.541 66.1851L76.828 66.1373C76.9821 66.1116 77.1292 66.2105 77.1631 66.3625L77.2902 66.9322C77.3241 67.0842 77.4712 67.1831 77.6253 67.1574Z" fill="#FFF8EE"/>
</g>
</g>
<mask id="mask8_131_12874" style="mask-type:luminance" maskUnits="userSpaceOnUse" x="113" y="35" width="10" height="10">
<path d="M119.952 35.9661L122.272 42.6765L115.554 44.9803L113.233 38.2699L119.952 35.9661Z" fill="white"/>
</mask>
<g mask="url(#mask8_131_12874)">
<g opacity="0.423223">
<path d="M118.827 41.3905L119.762 40.374C119.941 40.179 119.928 39.8755 119.732 39.6961C119.537 39.5165 119.233 39.5291 119.054 39.724L118.733 40.0727C118.561 40.26 118.272 40.28 118.075 40.1181L117.337 39.5118C117.14 39.3499 116.851 39.3698 116.679 39.5572L115.744 40.5737C115.565 40.7686 115.578 41.0721 115.774 41.2517C115.969 41.4312 116.273 41.4186 116.452 41.2238L116.773 40.8749C116.945 40.6876 117.234 40.6677 117.431 40.8295L118.169 41.4358C118.366 41.5977 118.655 41.5777 118.827 41.3905Z" fill="#FFF8EE"/>
</g>
</g>
<mask id="mask9_131_12874" style="mask-type:luminance" maskUnits="userSpaceOnUse" x="103" y="2" width="16" height="15">
<path d="M103.627 9.35052L110.704 2.04288L118.03 9.09912L110.954 16.4068L103.627 9.35052Z" fill="white"/>
</mask>
<g mask="url(#mask9_131_12874)">
<g opacity="0.423223">
<path d="M108.961 9.41626L109.13 9.47194C109.532 9.60456 109.751 10.0377 109.618 10.4392L109.562 10.6078C109.429 11.0094 109.648 11.4424 110.05 11.5751C110.453 11.7077 110.887 11.4897 111.02 11.088L111.076 10.9194C111.209 10.518 111.643 10.2998 112.046 10.4324L112.215 10.4881C112.618 10.6207 113.052 10.4027 113.185 10.0011C113.318 9.59948 113.099 9.16628 112.697 9.03365L112.528 8.97801C112.125 8.84539 111.906 8.41246 112.039 8.01082L112.095 7.84231C112.228 7.44068 112.01 7.00748 111.607 6.87485C111.204 6.74223 110.77 6.96042 110.637 7.36206L110.581 7.53057C110.448 7.9322 110.014 8.15016 109.611 8.01754L109.442 7.96186C109.039 7.82924 108.605 8.04743 108.472 8.44907C108.339 8.85061 108.558 9.28364 108.961 9.41626Z" fill="#F85657"/>
</g>
</g>
<mask id="mask10_131_12874" style="mask-type:luminance" maskUnits="userSpaceOnUse" x="16" y="65" width="10" height="9">
<path d="M16.7769 72.86L17.3201 65.1457L25.0503 65.6825L24.507 73.3967L16.7769 72.86Z" fill="white"/>
</mask>
<g mask="url(#mask10_131_12874)">
<g opacity="0.423223">
<path d="M19.4339 67.6974L21.695 67.2562C22.0645 67.1841 22.4221 67.4243 22.4937 67.7928L22.9322 70.0478C23.0039 70.4162 22.7625 70.7733 22.393 70.8454L20.1319 71.2866C19.7626 71.3587 19.405 71.1184 19.3332 70.75L18.8948 68.4949C18.8231 68.1264 19.0645 67.7694 19.4339 67.6974Z" fill="#55AEFF"/>
</g>
</g>
<mask id="mask11_131_12874" style="mask-type:luminance" maskUnits="userSpaceOnUse" x="59" y="66" width="9" height="9">
<path d="M65.8997 74.2213L59.4398 72.6186L61.0563 66.1668L67.5162 67.7695L65.8997 74.2213Z" fill="white"/>
</mask>
<g mask="url(#mask11_131_12874)">
<g opacity="0.423223">
<path d="M61.9194 71.2107L61.8858 69.2364C61.8803 68.9137 62.1381 68.6473 62.4615 68.6413L64.4412 68.6044C64.7646 68.5983 65.0312 68.8548 65.0367 69.1775L65.0704 71.1518C65.0758 71.4743 64.8181 71.7407 64.4946 71.7468L62.5149 71.7837C62.1914 71.7898 61.9248 71.5333 61.9194 71.2107Z" fill="#55AEFF"/>
</g>
</g>
<mask id="mask12_131_12874" style="mask-type:luminance" maskUnits="userSpaceOnUse" x="86" y="64" width="6" height="7">
<path d="M89.0918 70.1857L86.0454 67.45L88.7891 64.4109L91.8356 67.1466L89.0918 70.1857Z" fill="white"/>
</mask>
<g mask="url(#mask12_131_12874)">
<g opacity="0.423223">
<path d="M87.7998 67.4013L88.3527 66.3183C88.4431 66.1414 88.6601 66.0709 88.8375 66.161L89.9233 66.7121C90.1008 66.8021 90.1713 67.0185 90.081 67.1955L89.5281 68.2784C89.4378 68.4553 89.2208 68.5258 89.0433 68.4358L87.9575 67.8847C87.7801 67.7946 87.7095 67.5782 87.7998 67.4013Z" fill="#55AEFF"/>
</g>
</g>
<mask id="mask13_131_12874" style="mask-type:luminance" maskUnits="userSpaceOnUse" x="109" y="61" width="9" height="8">
<path d="M117.484 64.205L114.596 68.8127L109.981 65.9372L112.869 61.3294L117.484 64.205Z" fill="white"/>
</mask>
<g mask="url(#mask13_131_12874)">
<g opacity="0.423223">
<path d="M114.13 66.5345L112.582 66.0641C112.329 65.9873 112.187 65.7205 112.264 65.4683L112.738 63.9247C112.815 63.6725 113.082 63.5304 113.335 63.6073L114.883 64.0777C115.136 64.1545 115.278 64.4213 115.201 64.6735L114.728 66.2171C114.65 66.4693 114.383 66.6115 114.13 66.5345Z" fill="#55AEFF"/>
</g>
</g>
<mask id="mask14_131_12874" style="mask-type:luminance" maskUnits="userSpaceOnUse" x="86" y="-5" width="11" height="11">
<path d="M86.5208 3.73483L88.6822 -4.29369L96.7206 -2.15002L94.5591 5.8785L86.5208 3.73483Z" fill="white"/>
</mask>
<g mask="url(#mask14_131_12874)">
<g opacity="0.423223">
<path d="M90.3841 -1.17024L92.8591 -1.17348C93.2635 -1.17399 93.5912 -0.847472 93.5909 -0.444216L93.5896 2.0241C93.5895 2.42735 93.2616 2.75462 92.8572 2.75514L90.3822 2.75838C89.9779 2.7589 89.6502 2.43238 89.6503 2.02912L89.6516 -0.439194C89.6518 -0.842537 89.9797 -1.16981 90.3841 -1.17024Z" fill="#55AEFF"/>
</g>
</g>
<mask id="mask15_131_12874" style="mask-type:luminance" maskUnits="userSpaceOnUse" x="39" y="-3" width="5" height="5">
<path d="M39.0137 0.592819L39.6878 -2.85889L43.1441 -2.19025L42.47 1.26146L39.0137 0.592819Z" fill="white"/>
</mask>
<g mask="url(#mask15_131_12874)">
<g opacity="0.423223">
<path d="M40.4993 -1.59022L41.5438 -1.66446C41.7145 -1.67659 41.8625 -1.54843 41.8743 -1.37824L41.9467 -0.336519C41.9586 -0.166332 41.8299 -0.0185618 41.6592 -0.00643622L40.6147 0.0678042C40.4441 0.0799248 40.2961 -0.048227 40.2842 -0.218414L40.2118 -1.26014C40.1999 -1.43036 40.3286 -1.57813 40.4993 -1.59022Z" fill="#55AEFF"/>
</g>
</g>
<mask id="mask16_131_12874" style="mask-type:luminance" maskUnits="userSpaceOnUse" x="12" y="16" width="10" height="9">
<path d="M13.1584 24.3308L12.8823 16.4758L20.7558 16.2027L21.0319 24.0576L13.1584 24.3308Z" fill="white"/>
</mask>
<g mask="url(#mask16_131_12874)">
<g opacity="0.423223">
<path d="M15.2931 18.8324L17.5322 18.1472C17.8981 18.0353 18.2853 18.2403 18.397 18.6051L19.0811 20.8382C19.1929 21.2031 18.987 21.5895 18.6211 21.7014L16.382 22.3866C16.0163 22.4985 15.6291 22.2935 15.5172 21.9287L14.8332 19.6956C14.7214 19.3307 14.9273 18.9442 15.2931 18.8324Z" fill="#55AEFF"/>
</g>
</g>
<mask id="mask17_131_12874" style="mask-type:luminance" maskUnits="userSpaceOnUse" x="21" y="52" width="8" height="9">
<path d="M22.5061 52.9026L28.7437 54.3353L27.2981 60.5649L21.0605 59.1322L22.5061 52.9026Z" fill="white"/>
</mask>
<g mask="url(#mask17_131_12874)">
<g opacity="0.423223">
<path d="M25.425 55.3007L25.6027 55.8437C25.6301 55.9273 25.697 55.9921 25.7816 56.0169L26.3311 56.178C26.5443 56.2405 26.5926 56.5197 26.4129 56.6505L25.9498 56.9878C25.8784 57.0397 25.8372 57.1233 25.8395 57.2113L25.8548 57.7826C25.8607 58.0042 25.6093 58.1368 25.4293 58.007L24.9654 57.6725C24.894 57.6209 24.8016 57.6077 24.7184 57.6373L24.1784 57.8294C23.9689 57.9039 23.7652 57.7065 23.8336 57.4954L24.01 56.9515C24.0371 56.8677 24.0214 56.776 23.9676 56.7063L23.6185 56.2538C23.4832 56.0782 23.6087 55.8236 23.8309 55.823L24.4039 55.8214C24.4921 55.8211 24.5748 55.7774 24.6247 55.7048L24.949 55.2331C25.0748 55.0501 25.356 55.0901 25.425 55.3007Z" fill="#FFA909"/>
</g>
</g>
<mask id="mask18_131_12874" style="mask-type:luminance" maskUnits="userSpaceOnUse" x="45" y="65" width="6" height="6">
<path d="M45.4604 66.2397L49.9515 65.2081L50.9923 69.6934L46.5013 70.725L45.4604 66.2397Z" fill="white"/>
</mask>
<g mask="url(#mask18_131_12874)">
<g opacity="0.423223">
<path d="M48.1107 66.8749L48.398 67.1703C48.4422 67.2158 48.506 67.2367 48.5687 67.2261L48.9755 67.1577C49.1333 67.1311 49.2531 67.2965 49.1782 67.4376L48.9853 67.8013C48.9555 67.8573 48.9554 67.9243 48.9848 67.9805L49.1758 68.3453C49.2499 68.4867 49.1291 68.6515 48.9714 68.6241L48.5651 68.5535C48.5025 68.5426 48.4385 68.5631 48.394 68.6084L48.1053 68.9024C47.9933 69.0164 47.7989 68.9528 47.7762 68.7947L47.718 68.3874C47.709 68.3247 47.6697 68.2703 47.6129 68.2421L47.2434 68.0591C47.1001 67.9881 47.1007 67.784 47.2443 67.7137L47.6148 67.5326C47.6718 67.5047 47.7115 67.4505 47.7207 67.3878L47.7812 66.9808C47.8046 66.8229 47.9994 66.7603 48.1107 66.8749Z" fill="#FFA909"/>
</g>
</g>
<mask id="mask19_131_12874" style="mask-type:luminance" maskUnits="userSpaceOnUse" x="25" y="-11" width="16" height="15">
<path d="M28.6694 -10.834L40.708 -8.06875L37.9181 3.95434L25.8795 1.18914L28.6694 -10.834Z" fill="white"/>
</mask>
<g mask="url(#mask19_131_12874)">
<g opacity="0.423223">
<path d="M34.3028 -6.20549L34.6459 -5.15755C34.6988 -4.99608 34.8279 -4.87107 34.9912 -4.82322L36.0517 -4.51231C36.4631 -4.39178 36.5565 -3.85283 36.2096 -3.60032L35.3157 -2.9494C35.1779 -2.84923 35.0984 -2.68792 35.1029 -2.51803L35.1324 -1.41547C35.1439 -0.987832 34.6586 -0.731877 34.3112 -0.98245L33.4159 -1.62802C33.278 -1.72753 33.0997 -1.75295 32.9391 -1.69582L31.8969 -1.32513C31.4926 -1.18134 31.0994 -1.56226 31.2314 -1.9697L31.5718 -3.01948C31.6243 -3.18117 31.5939 -3.35816 31.4902 -3.49271L30.8164 -4.36611C30.5552 -4.70492 30.7974 -5.19624 31.2262 -5.1975L32.3322 -5.20064C32.5025 -5.20118 32.6619 -5.28538 32.7583 -5.4256L33.3843 -6.33588C33.627 -6.68912 34.1698 -6.61198 34.3028 -6.20549Z" fill="#FFA909"/>
</g>
</g>
<mask id="mask20_131_12874" style="mask-type:luminance" maskUnits="userSpaceOnUse" x="9" y="1" width="11" height="11">
<path d="M11.2385 1.96611L19.0028 3.89246L17.0598 11.647L9.29557 9.72066L11.2385 1.96611Z" fill="white"/>
</mask>
<g mask="url(#mask20_131_12874)">
<g opacity="0.423223">
<path d="M14.8343 5.02695L15.0446 5.70944C15.077 5.8146 15.1592 5.89701 15.2644 5.92984L15.9476 6.14314C16.2127 6.22583 16.267 6.57589 16.0395 6.7355L15.4533 7.14694C15.363 7.21026 15.3097 7.31382 15.3106 7.42389L15.3173 8.13821C15.3198 8.41527 15.0027 8.57555 14.7806 8.40936L14.2081 7.98121C14.1199 7.91522 14.0048 7.89674 13.9001 7.93193L13.221 8.16022C12.9576 8.24878 12.7073 7.99767 12.7974 7.73531L13.0297 7.05933C13.0656 6.95522 13.0478 6.84026 12.9822 6.75196L12.5558 6.17877C12.3905 5.95641 12.5529 5.64098 12.8306 5.645L13.5468 5.65544C13.6571 5.65701 13.7613 5.60428 13.8253 5.51456L14.241 4.93215C14.4021 4.70614 14.7528 4.76221 14.8343 5.02695Z" fill="#FFA909"/>
</g>
</g>
<mask id="mask21_131_12874" style="mask-type:luminance" maskUnits="userSpaceOnUse" x="111" y="32" width="9" height="9">
<path d="M111.935 36.1709L116.036 32.2212L119.997 36.3117L115.896 40.2614L111.935 36.1709Z" fill="white"/>
</mask>
<g mask="url(#mask21_131_12874)">
<g opacity="0.423223">
<path d="M115.147 35.1583L115.639 35.2889C115.715 35.309 115.796 35.2906 115.856 35.2397L116.243 34.9089C116.394 34.7805 116.626 34.8797 116.637 35.0767L116.665 35.5845C116.669 35.6628 116.711 35.7339 116.779 35.7748L117.214 36.0399C117.383 36.1428 117.36 36.394 117.175 36.4651L116.7 36.6483C116.626 36.6765 116.572 36.7389 116.553 36.8151L116.435 37.3098C116.389 37.5017 116.143 37.5578 116.018 37.4047L115.696 37.0101C115.646 36.9494 115.57 36.9167 115.492 36.9229L114.983 36.9636C114.786 36.9793 114.657 36.7627 114.764 36.5971L115.041 36.17C115.083 36.1042 115.091 36.0216 115.061 35.9493L114.865 35.4797C114.789 35.2975 114.955 35.1076 115.147 35.1583Z" fill="#FFA909"/>
</g>
</g>
<mask id="mask22_131_12874" style="mask-type:luminance" maskUnits="userSpaceOnUse" x="78" y="-3" width="10" height="10">
<path d="M78.075 -1.23651L86.0191 -2.62936L87.4259 5.30335L79.4817 6.69621L78.075 -1.23651Z" fill="white"/>
</mask>
<g mask="url(#mask22_131_12874)">
<g opacity="0.423223">
<path d="M82.6486 0.115504L83.1233 0.657877C83.1964 0.741446 83.306 0.783751 83.4165 0.771005L84.1336 0.688406C84.4118 0.656301 84.606 0.956346 84.4622 1.19615L84.0916 1.81423C84.0344 1.90942 84.0279 2.02651 84.0741 2.12743L84.3743 2.78228C84.4907 3.03626 84.2646 3.31328 83.9915 3.25101L83.288 3.09062C83.1796 3.06587 83.0659 3.09589 82.984 3.171L82.4524 3.65844C82.2462 3.8475 81.9122 3.71856 81.8872 3.44027L81.8229 2.72316C81.8131 2.61269 81.7494 2.51411 81.6526 2.45962L81.0238 2.10609C80.78 1.96892 80.7997 1.61224 81.0572 1.50255L81.7213 1.21973C81.8235 1.17615 81.8978 1.08506 81.9198 0.976352L82.063 0.270507C82.1184 -0.0033479 82.4645 -0.0949063 82.6486 0.115504Z" fill="#FFA909"/>
</g>
</g>
<mask id="mask23_131_12874" style="mask-type:luminance" maskUnits="userSpaceOnUse" x="57" y="-7" width="10" height="10">
<path d="M57.2393 -5.1505L65.1835 -6.54335L66.5902 1.38937L58.646 2.78222L57.2393 -5.1505Z" fill="white"/>
</mask>
<g mask="url(#mask23_131_12874)">
<g opacity="0.423223">
<path d="M61.8129 -3.79848L62.2876 -3.25611C62.3607 -3.17254 62.4703 -3.13024 62.5808 -3.14298L63.2979 -3.22558C63.5761 -3.25769 63.7703 -2.95764 63.6265 -2.71783L63.2559 -2.09976C63.1987 -2.00457 63.1922 -1.88747 63.2384 -1.78655L63.5386 -1.13171C63.655 -0.877726 63.4289 -0.600705 63.1558 -0.662973L62.4523 -0.82337C62.3439 -0.848114 62.2302 -0.818097 62.1483 -0.742987L61.6167 -0.255547C61.4105 -0.0664823 61.0765 -0.195426 61.0515 -0.473715L60.9872 -1.19083C60.9774 -1.30129 60.9137 -1.39988 60.8169 -1.45436L60.1881 -1.80789C59.9443 -1.94506 59.9641 -2.30174 60.2216 -2.41144L60.8856 -2.69426C60.9878 -2.73784 61.0621 -2.82893 61.0841 -2.93763L61.2273 -3.64348C61.2827 -3.91733 61.6288 -4.00889 61.8129 -3.79848Z" fill="#FFA909"/>
</g>
</g>
<mask id="mask24_131_12874" style="mask-type:luminance" maskUnits="userSpaceOnUse" x="102" y="1" width="8" height="8">
<path d="M105.903 1.68176L109.14 5.39526L105.417 8.62217L102.181 4.90868L105.903 1.68176Z" fill="white"/>
</mask>
<g mask="url(#mask24_131_12874)">
<g opacity="0.423223">
<path d="M106.635 4.49514L106.499 4.91394C106.479 4.97847 106.491 5.04908 106.532 5.10279L106.801 5.4516C106.906 5.5869 106.809 5.78282 106.638 5.78311L106.197 5.78396C106.129 5.78403 106.066 5.8175 106.027 5.87342L105.778 6.23641C105.681 6.37719 105.465 6.34619 105.411 6.18388L105.274 5.76569C105.253 5.70125 105.201 5.65127 105.136 5.63211L104.713 5.50768C104.549 5.45943 104.511 5.24431 104.65 5.14364L105.006 4.88436C105.061 4.84444 105.092 4.78014 105.091 4.7124L105.078 4.27251C105.074 4.1019 105.267 3.99996 105.406 4.10001L105.763 4.35805C105.818 4.39777 105.889 4.40793 105.953 4.38521L106.369 4.23787C106.53 4.18064 106.687 4.33271 106.635 4.49514Z" fill="#FFA909"/>
</g>
</g>
<mask id="mask25_131_12874" style="mask-type:luminance" maskUnits="userSpaceOnUse" x="62" y="61" width="5" height="6">
<path d="M62.1201 61.8097H66.3482V66.0263H62.1201V61.8097Z" fill="white"/>
</mask>
<g mask="url(#mask25_131_12874)">
<g opacity="0.577069">
<path d="M65.1778 63.918C65.1778 64.4377 64.7554 64.8589 64.2343 64.8589C63.7132 64.8589 63.2908 64.4377 63.2908 63.918C63.2908 63.3983 63.7132 62.9771 64.2343 62.9771C64.7554 62.9771 65.1778 63.3983 65.1778 63.918Z" fill="#FFD20B"/>
</g>
</g>
<mask id="mask26_131_12874" style="mask-type:luminance" maskUnits="userSpaceOnUse" x="94" y="50" width="13" height="13">
<path d="M94.4255 50.0164H106.661V62.2191H94.4255V50.0164Z" fill="white"/>
</mask>
<g mask="url(#mask26_131_12874)">
<g opacity="0.577069">
<path d="M103.274 56.1177C103.274 57.6216 102.051 58.8407 100.543 58.8407C99.0354 58.8407 97.813 57.6216 97.813 56.1177C97.813 54.6139 99.0354 53.3948 100.543 53.3948C102.051 53.3948 103.274 54.6139 103.274 56.1177Z" fill="#FFD20B"/>
</g>
</g>
<mask id="mask27_131_12874" style="mask-type:luminance" maskUnits="userSpaceOnUse" x="20" y="31" width="5" height="5">
<path d="M20.5977 31.1804H24.5695V35.1415H20.5977V31.1804Z" fill="white"/>
</mask>
<g mask="url(#mask27_131_12874)">
<g opacity="0.577069">
<path d="M23.4699 33.1609C23.4699 33.6491 23.0731 34.0448 22.5836 34.0448C22.0941 34.0448 21.6973 33.6491 21.6973 33.1609C21.6973 32.6727 22.0941 32.277 22.5836 32.277C23.0731 32.277 23.4699 32.6727 23.4699 33.1609Z" fill="#FFD20B"/>
</g>
</g>
<mask id="mask28_131_12874" style="mask-type:luminance" maskUnits="userSpaceOnUse" x="83" y="2" width="5" height="5">
<path d="M83.3599 2.95995H87.3317V6.92106H83.3599V2.95995Z" fill="white"/>
</mask>
<g mask="url(#mask28_131_12874)">
<g opacity="0.577069">
<path d="M86.2321 4.94051C86.2321 5.42868 85.8353 5.82439 85.3458 5.82439C84.8563 5.82439 84.4595 5.42868 84.4595 4.94051C84.4595 4.45234 84.8563 4.05663 85.3458 4.05663C85.8353 4.05663 86.2321 4.45234 86.2321 4.94051Z" fill="#FFD20B"/>
</g>
</g>
<mask id="mask29_131_12874" style="mask-type:luminance" maskUnits="userSpaceOnUse" x="34" y="51" width="6" height="5">
<path d="M35.6677 51.24L39.2703 52.1338L38.3688 55.7319L34.7662 54.8381L35.6677 51.24Z" fill="white"/>
</mask>
<g mask="url(#mask29_131_12874)">
<g opacity="0.577069">
<path d="M37.6659 53.1339L37.3453 52.4886C37.2838 52.3648 37.1334 52.3145 37.0093 52.3761C36.8853 52.4378 36.8346 52.5881 36.8961 52.7118L37.0061 52.9332C37.0652 53.0521 37.0209 53.1966 36.9051 53.2624L36.4715 53.5087C36.3557 53.5744 36.3114 53.7189 36.3705 53.8378L36.6911 54.4833C36.7526 54.6071 36.903 54.6574 37.0271 54.5958C37.1511 54.5341 37.2018 54.3838 37.1403 54.2601L37.0303 54.0386C36.9712 53.9197 37.0156 53.7752 37.1313 53.7094L37.5649 53.4631C37.6807 53.3974 37.725 53.2529 37.6659 53.1339Z" fill="#FFF8EE"/>
</g>
</g>
<mask id="mask30_131_12874" style="mask-type:luminance" maskUnits="userSpaceOnUse" x="16" y="33" width="10" height="11">
<path d="M17.1753 33.8534L25.7998 34.4522L25.1937 43.059L16.5692 42.4602L17.1753 33.8534Z" fill="white"/>
</mask>
<g mask="url(#mask30_131_12874)">
<g opacity="0.577069">
<path d="M22.5271 37.3884L21.5303 36.0388C21.3391 35.78 20.9738 35.7252 20.7145 35.9164C20.455 36.1078 20.3997 36.4726 20.5908 36.7315L20.9328 37.1944C21.1164 37.4431 21.0734 37.7921 20.8346 37.9894L19.9401 38.7287C19.7013 38.926 19.6582 39.275 19.842 39.5237L20.8388 40.8737C21.0299 41.1324 21.3952 41.1872 21.6547 40.9959C21.9142 40.8047 21.9695 40.4398 21.7784 40.181L21.4363 39.7177C21.2527 39.469 21.2958 39.1201 21.5345 38.9227L22.429 38.1834C22.6678 37.9861 22.7108 37.6371 22.5271 37.3884Z" fill="#FFF8EE"/>
</g>
</g>
<mask id="mask31_131_12874" style="mask-type:luminance" maskUnits="userSpaceOnUse" x="39" y="7" width="7" height="7">
<path d="M39.8896 10.7176L42.4515 7.20155L45.9744 9.75386L43.4126 13.2699L39.8896 10.7176Z" fill="white"/>
</mask>
<g mask="url(#mask31_131_12874)">
<g opacity="0.577069">
<path d="M42.8341 9.37872L41.9891 9.44428C41.8271 9.45689 41.7058 9.59807 41.7183 9.75963C41.7307 9.92125 41.8722 10.042 42.0342 10.0295L42.3241 10.007C42.4798 9.99491 42.6178 10.1062 42.6384 10.2606L42.7155 10.839C42.7361 10.9934 42.8741 11.1048 43.0298 11.0927L43.8749 11.0272C44.0369 11.0146 44.1582 10.8734 44.1457 10.7118C44.1333 10.5502 43.9918 10.4294 43.8298 10.442L43.5397 10.4644C43.3841 10.4765 43.2461 10.3652 43.2255 10.2108L43.1483 9.63238C43.1277 9.47797 42.9898 9.36666 42.8341 9.37872Z" fill="#FFF8EE"/>
</g>
</g>
<mask id="mask32_131_12874" style="mask-type:luminance" maskUnits="userSpaceOnUse" x="105" y="12" width="7" height="7">
<path d="M109.95 12.7152L111.443 16.8007L107.353 18.2835L105.859 14.198L109.95 12.7152Z" fill="white"/>
</mask>
<g mask="url(#mask32_131_12874)">
<g opacity="0.577069">
<path d="M109.419 15.8985L109.836 15.1631C109.916 15.0221 109.867 14.8428 109.725 14.7626C109.584 14.6824 109.404 14.7318 109.324 14.8727L109.181 15.125C109.104 15.2605 108.935 15.3122 108.795 15.2428L108.27 14.9827C108.131 14.9132 107.961 14.9649 107.884 15.1004L107.466 15.8358C107.386 15.9768 107.436 16.1561 107.577 16.2363C107.719 16.3165 107.898 16.2672 107.978 16.1262L108.122 15.8739C108.198 15.7384 108.368 15.6867 108.508 15.7561L109.032 16.0162C109.172 16.0857 109.342 16.034 109.419 15.8985Z" fill="#FFF8EE"/>
</g>
</g>
<mask id="mask33_131_12874" style="mask-type:luminance" maskUnits="userSpaceOnUse" x="90" y="49" width="7" height="7">
<path d="M96.1584 51.0583L94.7374 55.1693L90.6217 53.7577L92.0428 49.6467L96.1584 51.0583Z" fill="white"/>
</mask>
<g mask="url(#mask33_131_12874)">
<g opacity="0.577069">
<path d="M93.7344 53.1995L94.5233 52.89C94.6745 52.8306 94.7491 52.6601 94.6899 52.5092C94.6307 52.3583 94.46 52.284 94.3087 52.3433L94.0381 52.4496C93.8927 52.5066 93.7282 52.4404 93.6633 52.2987L93.4202 51.7679C93.3553 51.6262 93.1908 51.56 93.0454 51.617L92.2564 51.9265C92.1051 51.9859 92.0305 52.1563 92.0897 52.3073C92.1489 52.4583 92.3196 52.5325 92.4709 52.4732L92.7416 52.367C92.887 52.31 93.0515 52.3762 93.1164 52.5178L93.3596 53.0486C93.4245 53.1903 93.589 53.2565 93.7344 53.1995Z" fill="#FFF8EE"/>
</g>
</g>
<mask id="mask34_131_12874" style="mask-type:luminance" maskUnits="userSpaceOnUse" x="84" y="24" width="7" height="6">
<path d="M90.0537 25.438L88.6327 29.549L84.517 28.1373L85.938 24.0264L90.0537 25.438Z" fill="white"/>
</mask>
<g mask="url(#mask34_131_12874)">
<g opacity="0.577069">
<path d="M87.6296 27.5792L88.4185 27.2697C88.5698 27.2103 88.6444 27.0398 88.5852 26.8889C88.5259 26.7379 88.3553 26.6637 88.204 26.723L87.9334 26.8292C87.788 26.8862 87.6235 26.82 87.5586 26.6783L87.3154 26.1476C87.2506 26.0059 87.086 25.9396 86.9407 25.9967L86.1516 26.3061C86.0004 26.3655 85.9257 26.536 85.985 26.687C86.0442 26.8379 86.2149 26.9122 86.3661 26.8528L86.6369 26.7466C86.7823 26.6896 86.9468 26.7559 87.0117 26.8975L87.2548 27.4283C87.3197 27.57 87.4843 27.6362 87.6296 27.5792Z" fill="#FFF8EE"/>
</g>
</g>
<mask id="mask35_131_12874" style="mask-type:luminance" maskUnits="userSpaceOnUse" x="40" y="18" width="6" height="7">
<path d="M45.7959 20.2378L44.3749 24.3488L40.2592 22.9372L41.6802 18.8262L45.7959 20.2378Z" fill="white"/>
</mask>
<g mask="url(#mask35_131_12874)">
<g opacity="0.577069">
<path d="M43.3718 22.379L44.1607 22.0695C44.312 22.0101 44.3866 21.8396 44.3274 21.6887C44.2681 21.5378 44.0975 21.4635 43.9462 21.5228L43.6756 21.6291C43.5302 21.6861 43.3657 21.6199 43.3008 21.4782L43.0576 20.9474C42.9927 20.8057 42.8282 20.7395 42.6828 20.7965L41.8938 21.106C41.7426 21.1654 41.6679 21.3358 41.7272 21.4868C41.7864 21.6378 41.9571 21.712 42.1083 21.6527L42.3791 21.5465C42.5245 21.4895 42.689 21.5557 42.7539 21.6973L42.997 22.2281C43.0619 22.3698 43.2264 22.436 43.3718 22.379Z" fill="#FFF8EE"/>
</g>
</g>
<mask id="mask36_131_12874" style="mask-type:luminance" maskUnits="userSpaceOnUse" x="69" y="1" width="12" height="12">
<path d="M80.3794 4.34393L77.9197 12.3537L69.9003 9.91282L72.36 1.90301L80.3794 4.34393Z" fill="white"/>
</mask>
<g mask="url(#mask36_131_12874)">
<g opacity="0.577069">
<path d="M75.8559 8.62914L77.3541 7.98002C77.6414 7.8555 77.7737 7.52223 77.6495 7.23566C77.5253 6.94898 77.1917 6.81755 76.9044 6.94197L76.3905 7.16472C76.1144 7.2843 75.7932 7.16795 75.6588 6.8995L75.155 5.89392C75.0206 5.62547 74.6994 5.50905 74.4233 5.6287L72.9248 6.27773C72.6376 6.40225 72.5053 6.73552 72.6295 7.0222C72.7536 7.30885 73.0872 7.44028 73.3745 7.31587L73.8887 7.09311C74.1648 6.97354 74.486 7.08997 74.6204 7.35834L75.1242 8.36392C75.2586 8.63237 75.5799 8.74871 75.8559 8.62914Z" fill="#FFF8EE"/>
</g>
</g>
<mask id="mask37_131_12874" style="mask-type:luminance" maskUnits="userSpaceOnUse" x="25" y="52" width="12" height="12">
<path d="M25.4604 55.8226L33.1708 52.0745L36.9388 59.7744L29.2285 63.5225L25.4604 55.8226Z" fill="white"/>
</mask>
<g mask="url(#mask37_131_12874)">
<g opacity="0.577069">
<path d="M29.6208 57.6911L29.7533 57.7614C30.0691 57.9288 30.1891 58.3197 30.0216 58.6342L29.9512 58.7663C29.7836 59.0809 29.9036 59.4717 30.2194 59.6391C30.5351 59.8066 30.927 59.6873 31.0946 59.3726L31.1649 59.2405C31.3324 58.9261 31.7242 58.8066 32.0399 58.9741L32.1724 59.0443C32.4881 59.2118 32.8799 59.0925 33.0475 58.7779C33.2151 58.4633 33.095 58.0724 32.7792 57.9049L32.6468 57.8347C32.331 57.6672 32.211 57.2766 32.3786 56.9619L32.4489 56.8299C32.6165 56.5152 32.4964 56.1243 32.1807 55.9569C31.8649 55.7895 31.4732 55.9089 31.3056 56.2235L31.2353 56.3556C31.0677 56.6702 30.6759 56.7894 30.3602 56.622L30.2277 56.5517C29.9119 56.3843 29.5202 56.5037 29.3526 56.8184C29.1851 57.1329 29.3051 57.5237 29.6208 57.6911Z" fill="#F85657"/>
</g>
</g>
<mask id="mask38_131_12874" style="mask-type:luminance" maskUnits="userSpaceOnUse" x="38" y="55" width="13" height="13">
<path d="M38.957 60.708L45.986 55.8003L50.9126 62.816L43.8836 67.7237L38.957 60.708Z" fill="white"/>
</mask>
<g mask="url(#mask38_131_12874)">
<g opacity="0.577069">
<path d="M43.3585 61.9027L43.5004 61.9515C43.8385 62.0676 44.0183 62.4349 43.9022 62.7717L43.8534 62.9131C43.7372 63.2501 43.917 63.6173 44.2551 63.7334C44.5932 63.8495 44.9615 63.6705 45.0777 63.3336L45.1265 63.1921C45.2426 62.8553 45.6108 62.6762 45.9489 62.7923L46.0907 62.841C46.4288 62.9571 46.7971 62.7781 46.9133 62.4413C47.0295 62.1043 46.8496 61.737 46.5115 61.6209L46.3696 61.5721C46.0316 61.456 45.8518 61.0889 45.968 60.752L46.0167 60.6106C46.1329 60.2737 45.953 59.9063 45.6149 59.7902C45.2768 59.6741 44.9087 59.8532 44.7925 60.1902L44.7437 60.3315C44.6275 60.6685 44.2593 60.8474 43.9212 60.7313L43.7793 60.6826C43.4412 60.5665 43.073 60.7456 42.9568 61.0826C42.8407 61.4194 43.0204 61.7866 43.3585 61.9027Z" fill="#F85657"/>
</g>
</g>
<mask id="mask39_131_12874" style="mask-type:luminance" maskUnits="userSpaceOnUse" x="46" y="4" width="13" height="13">
<path d="M50.8933 16.0958L46.0541 8.94211L53.2208 4.12212L58.06 11.2758L50.8933 16.0958Z" fill="white"/>
</mask>
<g mask="url(#mask39_131_12874)">
<g opacity="0.577069">
<path d="M52.173 11.6951L52.2247 11.5535C52.3477 11.216 52.7219 11.0422 53.0602 11.165L53.2022 11.2165C53.5407 11.3394 53.9148 11.1656 54.0378 10.8282C54.1608 10.4908 53.9862 10.1176 53.6477 9.99472L53.5056 9.94314C53.1673 9.82035 52.9925 9.44731 53.1155 9.1099L53.1671 8.96834C53.2902 8.63093 53.1155 8.25776 52.7772 8.13493C52.4387 8.01207 52.0645 8.18604 51.9415 8.52345L51.8899 8.66501C51.7669 9.00242 51.3929 9.17627 51.0544 9.05341L50.9124 9.00187C50.574 8.87901 50.1998 9.05298 50.0768 9.39038C49.9538 9.72779 50.1285 10.1008 50.467 10.2237L50.609 10.2752C50.9475 10.3981 51.122 10.7711 50.999 11.1086L50.9474 11.2502C50.8244 11.5876 50.9991 11.9606 51.3376 12.0835C51.676 12.2063 52.05 12.0325 52.173 11.6951Z" fill="#F85657"/>
</g>
</g>
<mask id="mask40_131_12874" style="mask-type:luminance" maskUnits="userSpaceOnUse" x="79" y="35" width="13" height="13">
<path d="M84.2139 47.1699L79.3747 40.0163L86.5413 35.1963L91.3805 42.3499L84.2139 47.1699Z" fill="white"/>
</mask>
<g mask="url(#mask40_131_12874)">
<g opacity="0.577069">
<path d="M85.4936 42.7693L85.5452 42.6276C85.6683 42.2902 86.0424 42.1163 86.3807 42.2391L86.5228 42.2907C86.8613 42.4136 87.2353 42.2397 87.3583 41.9023C87.4813 41.5649 87.3067 41.1918 86.9682 41.0689L86.8262 41.0173C86.4879 40.8945 86.3131 40.5215 86.4361 40.1841L86.4877 40.0425C86.6107 39.7051 86.4361 39.3319 86.0977 39.2091C85.7592 39.0863 85.385 39.2602 85.262 39.5976L85.2104 39.7392C85.0874 40.0766 84.7135 40.2505 84.375 40.1276L84.233 40.076C83.8945 39.9532 83.5203 40.1272 83.3973 40.4646C83.2743 40.802 83.4491 41.175 83.7875 41.2979L83.9296 41.3494C84.268 41.4723 84.4426 41.8453 84.3196 42.1827L84.2679 42.3244C84.1449 42.6618 84.3197 43.0348 84.6582 43.1577C84.9966 43.2805 85.3706 43.1067 85.4936 42.7693Z" fill="#F85657"/>
</g>
</g>
<mask id="mask41_131_12874" style="mask-type:luminance" maskUnits="userSpaceOnUse" x="20" y="13" width="13" height="13">
<path d="M25.4258 25.3546L20.5866 18.2009L27.7532 13.381L32.5924 20.5346L25.4258 25.3546Z" fill="white"/>
</mask>
<g mask="url(#mask41_131_12874)">
<g opacity="0.577069">
<path d="M26.7055 20.9539L26.7572 20.8123C26.8802 20.4749 27.2543 20.301 27.5926 20.4238L27.7347 20.4754C28.0732 20.5982 28.4472 20.4244 28.5702 20.087C28.6932 19.7496 28.5186 19.3764 28.1802 19.2536L28.0381 19.202C27.6998 19.0792 27.525 18.7062 27.648 18.3688L27.6996 18.2272C27.8226 17.8898 27.648 17.5166 27.3096 17.3938C26.9712 17.2709 26.597 17.4449 26.474 17.7823L26.4223 17.9239C26.2993 18.2613 25.9254 18.4351 25.5869 18.3123L25.4449 18.2607C25.1064 18.1379 24.7322 18.3118 24.6092 18.6492C24.4862 18.9866 24.661 19.3597 24.9995 19.4825L25.1415 19.5341C25.4799 19.6569 25.6545 20.03 25.5315 20.3674L25.4799 20.5091C25.3568 20.8465 25.5316 21.2195 25.8701 21.3424C26.2085 21.4652 26.5825 21.2914 26.7055 20.9539Z" fill="#F85657"/>
</g>
</g>
<mask id="mask42_131_12874" style="mask-type:luminance" maskUnits="userSpaceOnUse" x="99" y="28" width="13" height="12">
<path d="M107.648 39.6884L99.8802 35.9126L103.677 28.1554L111.445 31.9312L107.648 39.6884Z" fill="white"/>
</mask>
<g mask="url(#mask42_131_12874)">
<g opacity="0.577069">
<path d="M106.557 35.2378L106.531 35.0894C106.469 34.7358 106.706 34.3985 107.06 34.336L107.209 34.3098C107.564 34.2472 107.801 33.91 107.738 33.5565C107.676 33.2029 107.338 32.9669 106.983 33.0295L106.834 33.0557C106.48 33.1182 106.141 32.8825 106.079 32.5289L106.053 32.3806C105.99 32.027 105.652 31.791 105.297 31.8535C104.943 31.9161 104.706 32.2535 104.768 32.607L104.794 32.7554C104.857 33.1089 104.62 33.4461 104.265 33.5086L104.117 33.5349C103.762 33.5974 103.525 33.9348 103.587 34.2884C103.65 34.6419 103.988 34.8777 104.343 34.8152L104.492 34.7889C104.846 34.7264 105.184 34.9623 105.247 35.3159L105.273 35.4643C105.335 35.8178 105.674 36.0536 106.028 35.9911C106.383 35.9286 106.62 35.5914 106.557 35.2378Z" fill="#F85657"/>
</g>
</g>
<mask id="mask43_131_12874" style="mask-type:luminance" maskUnits="userSpaceOnUse" x="27" y="45" width="8" height="8">
<path d="M30.2246 52.7474L27.0121 48.929L30.8389 45.7264L34.0515 49.5448L30.2246 52.7474Z" fill="white"/>
</mask>
<g mask="url(#mask43_131_12874)">
<g opacity="0.577069">
<path d="M29.2309 49.7393L29.5133 48.2854C29.5595 48.0478 29.79 47.8927 30.0281 47.9388L31.486 48.2212C31.7242 48.2673 31.8798 48.4972 31.8337 48.7348L31.5513 50.1887C31.5051 50.4262 31.2746 50.5814 31.0365 50.5353L29.5786 50.2529C29.3404 50.2067 29.1847 49.9768 29.2309 49.7393Z" fill="#55AEFF"/>
</g>
</g>
<mask id="mask44_131_12874" style="mask-type:luminance" maskUnits="userSpaceOnUse" x="50" y="63" width="5" height="4">
<path d="M54.1338 65.4658L51.6851 66.2111L50.9341 63.7654L53.3827 63.02L54.1338 65.4658Z" fill="white"/>
</mask>
<g mask="url(#mask44_131_12874)">
<g opacity="0.577069">
<path d="M52.5116 65.3295L51.8801 64.9042C51.7769 64.8347 51.7495 64.6949 51.819 64.5921L52.2437 63.9622C52.3131 63.8593 52.4529 63.8322 52.5561 63.9017L53.1877 64.327C53.2908 64.3965 53.3182 64.5363 53.2488 64.6392L52.8241 65.269C52.7547 65.3719 52.6148 65.399 52.5116 65.3295Z" fill="#55AEFF"/>
</g>
</g>
<mask id="mask45_131_12874" style="mask-type:luminance" maskUnits="userSpaceOnUse" x="106" y="24" width="8" height="8">
<path d="M112.75 31.7491L106.093 30.8191L107.032 24.1724L113.69 25.1024L112.75 31.7491Z" fill="white"/>
</mask>
<g mask="url(#mask45_131_12874)">
<g opacity="0.577069">
<path d="M109.042 29.6349L108.014 27.9263C107.846 27.6472 107.937 27.2844 108.217 27.1162L109.93 26.0862C110.21 25.9178 110.572 26.0077 110.74 26.2869L111.768 27.9954C111.936 28.2745 111.845 28.6372 111.565 28.8056L109.852 29.8356C109.572 30.0039 109.209 29.914 109.042 29.6349Z" fill="#55AEFF"/>
</g>
</g>
<mask id="mask46_131_12874" style="mask-type:luminance" maskUnits="userSpaceOnUse" x="60" y="2" width="6" height="6">
<path d="M63.2314 2.17648L65.5434 4.82899L62.8848 7.13394L60.5728 4.48143L63.2314 2.17648Z" fill="white"/>
</mask>
<g mask="url(#mask46_131_12874)">
<g opacity="0.577069">
<path d="M63.9691 4.285L63.7879 5.3135C63.7583 5.48156 63.5977 5.5938 63.4292 5.56417L62.3979 5.38301C62.2295 5.35346 62.1169 5.19328 62.1465 5.02522L62.3277 3.99672C62.3573 3.82873 62.5179 3.71649 62.6864 3.74605L63.7177 3.9272C63.8862 3.9568 63.9988 4.11698 63.9691 4.285Z" fill="#55AEFF"/>
</g>
</g>
<mask id="mask47_131_12874" style="mask-type:luminance" maskUnits="userSpaceOnUse" x="25" y="6" width="10" height="10">
<path d="M25.509 10.1617L31.1092 6.93818L34.3473 12.5297L28.7471 15.7532L25.509 10.1617Z" fill="white"/>
</mask>
<g mask="url(#mask47_131_12874)">
<g opacity="0.577069">
<path d="M29.577 9.57682L31.3725 10.2646C31.6659 10.377 31.8127 10.7053 31.7004 10.9978L31.0132 12.7883C30.9011 13.0809 30.5723 13.2269 30.2789 13.1145L28.4834 12.4267C28.1902 12.3144 28.0434 11.9861 28.1555 11.6935L28.8427 9.903C28.9549 9.61041 29.2837 9.46438 29.577 9.57682Z" fill="#55AEFF"/>
</g>
</g>
<mask id="mask48_131_12874" style="mask-type:luminance" maskUnits="userSpaceOnUse" x="9" y="39" width="9" height="9">
<path d="M13.3181 39.8242L17.8097 43.3236L14.2981 47.8056L9.80656 44.3062L13.3181 39.8242Z" fill="white"/>
</mask>
<g mask="url(#mask48_131_12874)">
<g opacity="0.577069">
<path d="M14.2953 42.5481L14.4453 43.0341C14.4684 43.109 14.527 43.1677 14.6019 43.1911L15.0884 43.3433C15.2772 43.4023 15.316 43.6515 15.1541 43.7651L14.7369 44.0578C14.6726 44.1028 14.6346 44.1765 14.6354 44.2549L14.6404 44.7635C14.6423 44.9608 14.4166 45.0747 14.2584 44.9563L13.8506 44.6513C13.7878 44.6042 13.7058 44.591 13.6313 44.6161L13.1479 44.7783C12.9604 44.8413 12.782 44.6624 12.8461 44.4756L13.0112 43.9944C13.0367 43.9203 13.024 43.8385 12.9773 43.7756L12.6734 43.3673C12.5556 43.2089 12.6711 42.9844 12.8689 42.9874L13.3788 42.9951C13.4573 42.9963 13.5315 42.9587 13.577 42.8949L13.8728 42.4804C13.9874 42.3195 14.2371 42.3596 14.2953 42.5481Z" fill="#FFA909"/>
</g>
</g>
<mask id="mask49_131_12874" style="mask-type:luminance" maskUnits="userSpaceOnUse" x="75" y="54" width="10" height="10">
<path d="M79.8767 54.3798L84.6083 58.7801L80.1952 63.4999L75.4636 59.0995L79.8767 54.3798Z" fill="white"/>
</mask>
<g mask="url(#mask49_131_12874)">
<g opacity="0.577069">
<path d="M80.7118 57.5558L80.8333 58.1201C80.852 58.207 80.9124 58.2792 80.9948 58.3131L81.5298 58.5332C81.7373 58.6185 81.7566 58.9042 81.5623 59.0165L81.0617 59.3062C80.9845 59.3507 80.9344 59.4303 80.9275 59.519L80.8828 60.0945C80.8655 60.3177 80.5991 60.4242 80.4319 60.2747L80.0011 59.8895C79.9348 59.8301 79.8434 59.8071 79.7567 59.828L79.1941 59.9636C78.9759 60.0162 78.792 59.7964 78.8829 59.5916L79.1172 59.0639C79.1533 58.9826 79.1471 58.8888 79.1004 58.8131L78.7973 58.3215C78.6798 58.1308 78.8326 57.8884 79.0559 57.9113L79.6316 57.9705C79.7202 57.9795 79.8078 57.9445 79.8655 57.8768L80.2409 57.4374C80.3864 57.2669 80.6647 57.3369 80.7118 57.5558Z" fill="#FFA909"/>
</g>
</g>
<mask id="mask50_131_12874" style="mask-type:luminance" maskUnits="userSpaceOnUse" x="33" y="5" width="8" height="8">
<path d="M33.6172 7.79623L38.567 5.70261L40.6729 10.6463L35.7231 12.7399L33.6172 7.79623Z" fill="white"/>
</mask>
<g mask="url(#mask50_131_12874)">
<g opacity="0.577069">
<path d="M36.319 8.23987L36.7899 8.33909C36.8625 8.35438 36.9379 8.33309 36.9915 8.28214L37.3397 7.95141C37.4748 7.82308 37.6989 7.90533 37.719 8.09062L37.7707 8.56814C37.7786 8.64174 37.8223 8.70672 37.8875 8.74201L38.3108 8.97095C38.475 9.05974 38.4663 9.29777 38.2959 9.37376L37.8571 9.56958C37.7894 9.59973 37.741 9.66118 37.7277 9.73395L37.6411 10.2062C37.6076 10.3894 37.378 10.4542 37.2526 10.3159L36.9297 9.95949C36.88 9.90458 36.8064 9.8775 36.733 9.88716L36.2562 9.95016C36.0712 9.97456 35.9381 9.7766 36.0309 9.61519L36.2703 9.199C36.3072 9.1349 36.31 9.05667 36.2779 8.98994L36.0699 8.55659C35.9891 8.3885 36.1364 8.20134 36.319 8.23987Z" fill="#FFA909"/>
</g>
</g>
<mask id="mask51_131_12874" style="mask-type:luminance" maskUnits="userSpaceOnUse" x="35" y="20" width="5" height="5">
<path d="M35.2441 20.3012H39.5363V24.5817H35.2441V20.3012Z" fill="white"/>
</mask>
<g mask="url(#mask51_131_12874)">
<g opacity="0.730915">
<path d="M38.348 22.4414C38.348 22.969 37.9191 23.3966 37.3902 23.3966C36.8612 23.3966 36.4324 22.969 36.4324 22.4414C36.4324 21.9139 36.8612 21.4863 37.3902 21.4863C37.9191 21.4863 38.348 21.9139 38.348 22.4414Z" fill="#FFD20B"/>
</g>
</g>
<mask id="mask52_131_12874" style="mask-type:luminance" maskUnits="userSpaceOnUse" x="77" y="42" width="5" height="6">
<path d="M77.5151 42.8939H81.8073V47.1745H77.5151V42.8939Z" fill="white"/>
</mask>
<g mask="url(#mask52_131_12874)">
<g opacity="0.730915">
<path d="M80.619 45.0342C80.619 45.5618 80.1901 45.9894 79.6612 45.9894C79.1322 45.9894 78.7034 45.5618 78.7034 45.0342C78.7034 44.5067 79.1322 44.0791 79.6612 44.0791C80.1901 44.0791 80.619 44.5067 80.619 45.0342Z" fill="#FFD20B"/>
</g>
</g>
<mask id="mask53_131_12874" style="mask-type:luminance" maskUnits="userSpaceOnUse" x="77" y="19" width="5" height="6">
<path d="M77.262 19.7963H81.5542V24.0769H77.262V19.7963Z" fill="white"/>
</mask>
<g mask="url(#mask53_131_12874)">
<g opacity="0.730915">
<path d="M80.3658 21.9366C80.3658 22.4641 79.937 22.8917 79.408 22.8917C78.879 22.8917 78.4502 22.4641 78.4502 21.9366C78.4502 21.409 78.879 20.9814 79.408 20.9814C79.937 20.9814 80.3658 21.409 80.3658 21.9366Z" fill="#FFD20B"/>
</g>
</g>
<mask id="mask54_131_12874" style="mask-type:luminance" maskUnits="userSpaceOnUse" x="52" y="44" width="6" height="6">
<path d="M52.0215 46.3553L55.2046 44.4484L57.1199 47.6264L53.9368 49.5333L52.0215 46.3553Z" fill="white"/>
</mask>
<g mask="url(#mask54_131_12874)">
<g opacity="0.730915">
<path d="M54.6279 46.2573L53.91 46.1743C53.7723 46.1584 53.6479 46.2568 53.6321 46.394C53.6163 46.5313 53.7152 46.6555 53.8528 46.6715L54.0991 46.6999C54.2314 46.7152 54.3288 46.8309 54.321 46.9635L54.2917 47.4602C54.2839 47.5928 54.3813 47.7085 54.5136 47.7237L55.2316 47.8068C55.3692 47.8227 55.4937 47.7243 55.5094 47.587C55.5252 47.4498 55.4264 47.3256 55.2888 47.3096L55.0424 47.2811C54.9101 47.2658 54.8127 47.1501 54.8205 47.0176L54.8497 46.5209C54.8576 46.3883 54.7601 46.2726 54.6279 46.2573Z" fill="#FFF8EE"/>
</g>
</g>
<mask id="mask55_131_12874" style="mask-type:luminance" maskUnits="userSpaceOnUse" x="34" y="39" width="5" height="5">
<path d="M34.7803 39.152L38.3527 39.4626L38.0389 43.0282L34.4664 42.7175L34.7803 39.152Z" fill="white"/>
</mask>
<g mask="url(#mask55_131_12874)">
<g opacity="0.730915">
<path d="M36.8721 40.5495L36.3582 40.0787C36.2597 39.9885 36.1064 39.9949 36.0158 40.0932C35.9253 40.1915 35.9317 40.3444 36.0302 40.4347L36.2066 40.5962C36.3012 40.6829 36.3115 40.8283 36.2298 40.9275L35.9239 41.2988C35.8422 41.398 35.8524 41.5434 35.9471 41.6301L36.461 42.101C36.5595 42.1913 36.7128 42.1848 36.8034 42.0865C36.894 41.9882 36.8875 41.8353 36.789 41.745L36.6127 41.5835C36.518 41.4967 36.5078 41.3513 36.5894 41.2522L36.8953 40.8808C36.977 40.7817 36.9668 40.6362 36.8721 40.5495Z" fill="#FFF8EE"/>
</g>
</g>
<mask id="mask56_131_12874" style="mask-type:luminance" maskUnits="userSpaceOnUse" x="87" y="10" width="7" height="7">
<path d="M93.7317 10.5872L93.507 16.9734L87.1058 16.7515L87.3305 10.3654L93.7317 10.5872Z" fill="white"/>
</mask>
<g mask="url(#mask56_131_12874)">
<g opacity="0.730915">
<path d="M91.4281 14.442L92.2216 13.4836C92.3737 13.2999 92.3477 13.0277 92.1636 12.8757C91.9794 12.7237 91.7067 12.7495 91.5545 12.9332L91.2823 13.262C91.1361 13.4386 90.8771 13.4704 90.6922 13.3343L89.9996 12.8246C89.8148 12.6885 89.5557 12.7202 89.4095 12.8969L88.6158 13.8552C88.4637 14.039 88.4897 14.3112 88.6739 14.4632C88.8581 14.6152 89.1307 14.5894 89.2829 14.4057L89.5553 14.0768C89.7015 13.9003 89.9605 13.8685 90.1454 14.0046L90.838 14.5142C91.0228 14.6503 91.2818 14.6185 91.4281 14.442Z" fill="#FFF8EE"/>
</g>
</g>
<mask id="mask57_131_12874" style="mask-type:luminance" maskUnits="userSpaceOnUse" x="95" y="26" width="10" height="10">
<path d="M100.479 35.1522L95.6456 30.9614L99.8492 26.1387L104.683 30.3295L100.479 35.1522Z" fill="white"/>
</mask>
<g mask="url(#mask57_131_12874)">
<g opacity="0.730915">
<path d="M98.9275 30.9423L99.1741 32.1604C99.2215 32.394 99.4497 32.5451 99.6838 32.4978C99.9181 32.4506 100.07 32.2229 100.022 31.9893L99.9377 31.5714C99.8923 31.347 100.031 31.1261 100.253 31.0684L101.085 30.8519C101.308 30.7941 101.446 30.5733 101.4 30.3488L101.154 29.1305C101.107 28.8969 100.878 28.7459 100.644 28.7931C100.41 28.8403 100.258 29.068 100.306 29.3016L100.39 29.7196C100.436 29.9441 100.297 30.1649 100.075 30.2227L99.2426 30.4392C99.0204 30.497 98.8821 30.7178 98.9275 30.9423Z" fill="#FFF8EE"/>
</g>
</g>
<mask id="mask58_131_12874" style="mask-type:luminance" maskUnits="userSpaceOnUse" x="69" y="51" width="13" height="12">
<path d="M69.7935 59.2035L73.1533 51.3173L81.0496 54.6568L77.6897 62.543L69.7935 59.2035Z" fill="white"/>
</mask>
<g mask="url(#mask58_131_12874)">
<g opacity="0.730915">
<path d="M74.3502 58.0928L74.488 58.0336C74.8164 57.8925 75.1971 58.0436 75.3383 58.3707L75.3976 58.5081C75.5389 58.8354 75.9195 58.9864 76.2479 58.8453C76.5762 58.7043 76.728 58.3246 76.5868 57.9973L76.5275 57.8599C76.3863 57.5327 76.5378 57.153 76.8662 57.012L77.004 56.9528C77.3324 56.8117 77.4842 56.432 77.3429 56.1048C77.2017 55.7775 76.8209 55.6265 76.4925 55.7676L76.3547 55.8268C76.0263 55.9678 75.6458 55.8169 75.5045 55.4896L75.4453 55.3523C75.304 55.025 74.9232 54.874 74.5948 55.015C74.2664 55.1561 74.1149 55.5358 74.2561 55.8631L74.3154 56.0004C74.4566 56.3277 74.3049 56.7073 73.9765 56.8484L73.8387 56.9076C73.5103 57.0487 73.3587 57.4284 73.5 57.7557C73.6412 58.0829 74.0218 58.2339 74.3502 58.0928Z" fill="#F85657"/>
</g>
</g>
<mask id="mask59_131_12874" style="mask-type:luminance" maskUnits="userSpaceOnUse" x="83" y="47" width="8" height="7">
<path d="M87.2656 53.8031L83.6825 51.0114L86.4838 47.4358L90.067 50.2275L87.2656 53.8031Z" fill="white"/>
</mask>
<g mask="url(#mask59_131_12874)">
<g opacity="0.730915">
<path d="M86.1858 51.6842L85.6144 50.4627C85.521 50.2631 85.6076 50.0257 85.8077 49.9325L87.0326 49.362C87.2327 49.2687 87.4706 49.3549 87.564 49.5545L88.1354 50.7761C88.2287 50.9756 88.1421 51.2129 87.942 51.3062L86.7171 51.8768C86.517 51.97 86.2791 51.8838 86.1858 51.6842Z" fill="#55AEFF"/>
</g>
</g>
<mask id="mask60_131_12874" style="mask-type:luminance" maskUnits="userSpaceOnUse" x="91" y="36" width="6" height="7">
<path d="M96.7786 39.6898L93.7857 42.1943L91.2732 39.2082L94.266 36.7037L96.7786 39.6898Z" fill="white"/>
</mask>
<g mask="url(#mask60_131_12874)">
<g opacity="0.730915">
<path d="M94.7999 40.2167L93.6685 40.4775C93.4836 40.5201 93.299 40.4051 93.2563 40.2208L92.9943 39.0923C92.9515 38.908 93.0667 38.724 93.2516 38.6814L94.383 38.4207C94.5678 38.3781 94.7524 38.493 94.7952 38.6773L95.0571 39.8058C95.0999 39.9902 94.9848 40.1741 94.7999 40.2167Z" fill="#55AEFF"/>
</g>
</g>
<mask id="mask61_131_12874" style="mask-type:luminance" maskUnits="userSpaceOnUse" x="66" y="13" width="7" height="7">
<path d="M69.4092 13.1968L72.3517 16.5727L68.968 19.5063L66.0255 16.1304L69.4092 13.1968Z" fill="white"/>
</mask>
<g mask="url(#mask61_131_12874)">
<g opacity="0.730915">
<path d="M70.0557 15.4506L70.3789 16.7401C70.4317 16.9508 70.3033 17.1642 70.092 17.2167L68.799 17.5385C68.5878 17.5911 68.3738 17.463 68.321 17.2523L67.9978 15.9628C67.945 15.7522 68.0735 15.5388 68.2847 15.4861L69.5777 15.1644C69.789 15.1118 70.003 15.2399 70.0557 15.4506Z" fill="#55AEFF"/>
</g>
</g>
<mask id="mask62_131_12874" style="mask-type:luminance" maskUnits="userSpaceOnUse" x="32" y="31" width="5" height="5">
<path d="M34.5696 35.1744L32.6907 33.165L34.7052 31.2916L36.584 33.3009L34.5696 35.1744Z" fill="white"/>
</mask>
<g mask="url(#mask62_131_12874)">
<g opacity="0.730915">
<path d="M34.1244 33.8046L33.8983 33.0199C33.8614 32.8917 33.9356 32.7579 34.0642 32.7211L34.8511 32.4959C34.9796 32.459 35.1137 32.5331 35.1507 32.6613L35.3767 33.4461C35.4136 33.5742 35.3394 33.708 35.2108 33.7448L34.424 33.9701C34.2954 34.0069 34.1613 33.9328 34.1244 33.8046Z" fill="#55AEFF"/>
</g>
</g>
<mask id="mask63_131_12874" style="mask-type:luminance" maskUnits="userSpaceOnUse" x="45" y="14" width="5" height="5">
<path d="M47.7317 18.64L45.8528 16.6306L47.8673 14.7572L49.7461 16.7665L47.7317 18.64Z" fill="white"/>
</mask>
<g mask="url(#mask63_131_12874)">
<g opacity="0.730915">
<path d="M47.2865 17.2702L47.0604 16.4855C47.0235 16.3573 47.0977 16.2235 47.2263 16.1867L48.0132 15.9615C48.1417 15.9246 48.2758 15.9987 48.3128 16.1269L48.5388 16.9117C48.5758 17.0398 48.5015 17.1736 48.3729 17.2104L47.5861 17.4357C47.4575 17.4725 47.3234 17.3984 47.2865 17.2702Z" fill="#55AEFF"/>
</g>
</g>
<mask id="mask64_131_12874" style="mask-type:luminance" maskUnits="userSpaceOnUse" x="27" y="33" width="10" height="10">
<path d="M29.469 33.1613L36.8294 34.852L35.1236 42.2029L27.7632 40.5122L29.469 33.1613Z" fill="white"/>
</mask>
<g mask="url(#mask64_131_12874)">
<g opacity="0.730915">
<path d="M31.4493 36.0957L32.0677 36.3682C32.163 36.4102 32.2728 36.4028 32.3616 36.3484L32.9379 35.9952C33.1615 35.8581 33.4454 36.0359 33.4184 36.2961L33.3488 36.9667C33.338 37.07 33.3789 37.1719 33.4582 37.2392L33.9729 37.6761C34.1726 37.8455 34.0904 38.1698 33.8338 38.2248L33.1726 38.3666C33.0707 38.3884 32.986 38.4588 32.9463 38.5548L32.6881 39.1782C32.588 39.4199 32.2532 39.4424 32.1215 39.2163L31.7825 38.6334C31.7303 38.5436 31.6371 38.4851 31.5333 38.4772L30.859 38.4256C30.5975 38.4055 30.4728 38.0952 30.648 37.9005L31.0998 37.3984C31.1693 37.321 31.1963 37.2145 31.1719 37.1136L31.0135 36.4584C30.9519 36.2042 31.2095 35.9899 31.4493 36.0957Z" fill="#FFA909"/>
</g>
</g>
<mask id="mask65_131_12874" style="mask-type:luminance" maskUnits="userSpaceOnUse" x="34" y="41" width="16" height="16">
<path d="M34.188 44.0868L46.5487 41.0201L49.6419 53.3653L37.2812 56.4321L34.188 44.0868Z" fill="white"/>
</mask>
<g mask="url(#mask65_131_12874)">
<g opacity="0.730915">
<path d="M39.4212 46.9849L40.5594 46.9242C40.7348 46.9149 40.8941 46.8201 40.9854 46.6707L41.5786 45.7007C41.8087 45.3244 42.372 45.3757 42.5317 45.7876L42.9437 46.8491C43.007 47.0127 43.147 47.1348 43.3179 47.1757L44.4271 47.441C44.8573 47.5439 44.9837 48.0941 44.6408 48.3722L43.7573 49.0887C43.6211 49.1991 43.5482 49.3693 43.5625 49.544L43.655 50.6781C43.6908 51.1179 43.2055 51.4066 42.8337 51.1667L41.8758 50.5481C41.7283 50.4528 41.5434 50.4358 41.3813 50.5028L40.3293 50.9385C39.9212 51.1074 39.495 50.7356 39.608 50.3093L39.8997 49.2103C39.9445 49.0411 39.9029 48.8602 39.7885 48.7271L39.0461 47.8622C38.7579 47.5268 38.9797 47.0084 39.4212 46.9849Z" fill="#FFA909"/>
</g>
</g>
<mask id="mask66_131_12874" style="mask-type:luminance" maskUnits="userSpaceOnUse" x="52" y="51" width="11" height="11">
<path d="M53.9321 51.5314L62.0726 53.2526L60.3355 61.3823L52.195 59.6611L53.9321 51.5314Z" fill="white"/>
</mask>
<g mask="url(#mask66_131_12874)">
<g opacity="0.730915">
<path d="M56.1696 54.7252L56.856 55.0138C56.9617 55.0582 57.0826 55.048 57.1793 54.9864L57.8072 54.5864C58.0508 54.4311 58.367 54.6216 58.3423 54.9088L58.2788 55.6488C58.2689 55.7628 58.316 55.8743 58.4046 55.947L58.9801 56.4185C59.2033 56.6014 59.1191 56.9602 58.8376 57.0256L58.1121 57.1943C58.0003 57.2203 57.9084 57.2994 57.8665 57.4059L57.5943 58.0975C57.4888 58.3657 57.1204 58.3969 56.971 58.1502L56.5862 57.5145C56.5269 57.4166 56.4232 57.3539 56.3086 57.3471L55.565 57.303C55.2765 57.2859 55.1331 56.9464 55.3222 56.7285L55.8101 56.1669C55.8852 56.0804 55.9128 55.9625 55.8839 55.8518L55.6966 55.133C55.6238 54.8542 55.9034 54.6132 56.1696 54.7252Z" fill="#FFA909"/>
</g>
</g>
<mask id="mask67_131_12874" style="mask-type:luminance" maskUnits="userSpaceOnUse" x="66" y="51" width="7" height="7">
<path d="M70.1963 51.1394L72.8434 54.9091L69.0666 57.546L66.4195 53.7764L70.1963 51.1394Z" fill="white"/>
</mask>
<g mask="url(#mask67_131_12874)">
<g opacity="0.730915">
<path d="M69.8963 53.278L70.0651 53.6536C70.0911 53.7114 70.144 53.7528 70.2065 53.7643L70.6123 53.8389C70.7697 53.8678 70.8257 54.0642 70.707 54.1712L70.4011 54.447C70.3539 54.4894 70.3308 54.5523 70.3392 54.6151L70.3938 55.023C70.415 55.1812 70.2451 55.2948 70.1062 55.2152L69.7485 55.0101C69.6934 54.9785 69.6262 54.9759 69.5689 55.0032L69.1968 55.1808C69.0525 55.2496 68.8915 55.1234 68.9244 54.9672L69.0091 54.5647C69.0222 54.5027 69.0039 54.4382 68.9601 54.3923L68.6755 54.0942C68.5651 53.9785 68.6356 53.787 68.7946 53.7701L69.2049 53.7264C69.268 53.7197 69.3239 53.6823 69.3541 53.6266L69.5503 53.2649C69.6264 53.1245 69.8309 53.1323 69.8963 53.278Z" fill="#FFA909"/>
</g>
</g>
<mask id="mask68_131_12874" style="mask-type:luminance" maskUnits="userSpaceOnUse" x="91" y="36" width="15" height="15">
<path d="M101.129 36.3731L105.938 46.199L96.0982 50.9817L91.2894 41.1558L101.129 36.3731Z" fill="white"/>
</mask>
<g mask="url(#mask68_131_12874)">
<g opacity="0.730915">
<path d="M99.631 41.2786L99.8875 42.2222C99.927 42.3676 100.036 42.4843 100.178 42.5345L101.102 42.8602C101.461 42.9865 101.519 43.4678 101.201 43.6746L100.381 44.2078C100.254 44.2899 100.177 44.4288 100.173 44.5793L100.15 45.5562C100.141 45.9351 99.6997 46.1384 99.4035 45.9001L98.6404 45.2862C98.5229 45.1916 98.3663 45.1606 98.2216 45.2035L97.2828 45.4817C96.9186 45.5896 96.5879 45.2338 96.723 44.8796L97.0714 43.9671C97.1251 43.8265 97.1061 43.6685 97.0204 43.5445L96.4636 42.7395C96.2476 42.4273 96.4841 42.0042 96.8636 42.0235L97.8422 42.0736C97.9929 42.0812 98.1378 42.0143 98.2293 41.8949L98.8242 41.1194C99.0548 40.8185 99.5316 40.9126 99.631 41.2786Z" fill="#FFA909"/>
</g>
</g>
<mask id="mask69_131_12874" style="mask-type:luminance" maskUnits="userSpaceOnUse" x="92" y="26" width="5" height="6">
<path d="M93.1472 26.9391L96.888 27.4617L96.3599 31.1965L92.6191 30.6739L93.1472 26.9391Z" fill="white"/>
</mask>
<g mask="url(#mask69_131_12874)">
<g opacity="0.730915">
<path d="M94.2625 28.314L94.5823 28.423C94.6316 28.4398 94.686 28.4314 94.7278 28.4004L94.9993 28.1994C95.1047 28.1214 95.2539 28.1977 95.2518 28.3285L95.2465 28.6657C95.2457 28.7176 95.2705 28.7666 95.313 28.7967L95.5884 28.9921C95.6952 29.0679 95.6685 29.233 95.5431 29.2715L95.2201 29.3708C95.1703 29.3861 95.1313 29.4248 95.1157 29.4744L95.0144 29.7962C94.9752 29.921 94.8094 29.9467 94.734 29.8397L94.5396 29.564C94.5097 29.5215 94.4607 29.4964 94.4087 29.4969L94.0706 29.5005C93.9395 29.5018 93.8638 29.3526 93.9425 29.248L94.1455 28.9782C94.1768 28.9367 94.1855 28.8824 94.1689 28.8332L94.0613 28.5136C94.0195 28.3897 94.1384 28.2717 94.2625 28.314Z" fill="#FFA909"/>
</g>
</g>
<mask id="mask70_131_12874" style="mask-type:luminance" maskUnits="userSpaceOnUse" x="82" y="33" width="5" height="5">
<path d="M82.6428 33.25L86.3836 33.7725L85.8555 37.5073L82.1147 36.9848L82.6428 33.25Z" fill="white"/>
</mask>
<g mask="url(#mask70_131_12874)">
<g opacity="0.730915">
<path d="M83.7581 34.6248L84.078 34.7339C84.1272 34.7507 84.1816 34.7422 84.2234 34.7112L84.495 34.5103C84.6003 34.4323 84.7495 34.5086 84.7474 34.6394L84.7421 34.9765C84.7413 35.0285 84.7661 35.0774 84.8086 35.1075L85.084 35.3029C85.1908 35.3787 85.1641 35.5438 85.0388 35.5823L84.7157 35.6816C84.6659 35.6969 84.6269 35.7356 84.6113 35.7852L84.51 36.107C84.4708 36.2318 84.305 36.2575 84.2296 36.1505L84.0352 35.8748C84.0053 35.8323 83.9563 35.8073 83.9043 35.8078L83.5662 35.8113C83.4351 35.8126 83.3594 35.6634 83.4381 35.5588L83.6411 35.2891C83.6724 35.2475 83.6811 35.1932 83.6645 35.144L83.5569 34.8245C83.5151 34.7005 83.6341 34.5825 83.7581 34.6248Z" fill="#FFA909"/>
</g>
</g>
<mask id="mask71_131_12874" style="mask-type:luminance" maskUnits="userSpaceOnUse" x="90" y="12" width="11" height="11">
<path d="M90.0205 15.4906L97.5043 12.3256L100.689 19.7998L93.2049 22.9648L90.0205 15.4906Z" fill="white"/>
</mask>
<g mask="url(#mask71_131_12874)">
<g opacity="0.730915">
<path d="M93.6091 16.7961L94.3204 16.6443C94.43 16.6209 94.5209 16.5452 94.5635 16.4419L94.8405 15.7713C94.9479 15.5111 95.308 15.4872 95.4498 15.731L95.8155 16.3591C95.8718 16.4559 95.9722 16.5189 96.084 16.5276L96.8096 16.5842C97.091 16.6062 97.2256 16.9405 97.0373 17.15L96.5521 17.6898C96.4773 17.773 96.4483 17.8876 96.4748 17.9963L96.6464 18.702C96.7129 18.9757 96.4359 19.2061 96.1776 19.0919L95.5121 18.7975C95.4096 18.7522 95.2913 18.7599 95.1959 18.8183L94.5764 19.1979C94.3361 19.3451 94.0303 19.1532 94.059 18.8732L94.133 18.1513C94.1443 18.0401 94.1001 17.9303 94.0147 17.8577L93.4603 17.3866C93.2452 17.2039 93.3332 16.8549 93.6091 16.7961Z" fill="#FFA909"/>
</g>
</g>
<mask id="mask72_131_12874" style="mask-type:luminance" maskUnits="userSpaceOnUse" x="71" y="9" width="12" height="12">
<path d="M71.543 13.0925L79.0267 9.92747L82.2111 17.4017L74.7273 20.5667L71.543 13.0925Z" fill="white"/>
</mask>
<g mask="url(#mask72_131_12874)">
<g opacity="0.730915">
<path d="M75.1315 14.398L75.8428 14.2461C75.9524 14.2228 76.0434 14.1471 76.086 14.0438L76.3629 13.3731C76.4703 13.1129 76.8304 13.0891 76.9723 13.3328L77.338 13.9609C77.3943 14.0578 77.4946 14.1208 77.6065 14.1295L78.332 14.1861C78.6135 14.208 78.7481 14.5423 78.5597 14.7518L78.0745 15.2917C77.9997 15.3748 77.9708 15.4894 77.9972 15.5982L78.1688 16.3039C78.2354 16.5776 77.9584 16.808 77.7001 16.6938L77.0346 16.3994C76.9321 16.354 76.8138 16.3618 76.7184 16.4202L76.0989 16.7998C75.8586 16.947 75.5528 16.7551 75.5815 16.4751L75.6555 15.7532C75.6668 15.642 75.6225 15.5321 75.5371 15.4596L74.9828 14.9885C74.7677 14.8058 74.8556 14.4568 75.1315 14.398Z" fill="#FFA909"/>
</g>
</g>
<mask id="mask73_131_12874" style="mask-type:luminance" maskUnits="userSpaceOnUse" x="52" y="15" width="7" height="7">
<path d="M53.4995 15.0018L58.6767 16.1909L57.4769 21.3615L52.2997 20.1723L53.4995 15.0018Z" fill="white"/>
</mask>
<g mask="url(#mask73_131_12874)">
<g opacity="0.730915">
<path d="M54.8922 17.0657L55.3272 17.2575C55.3942 17.287 55.4715 17.2818 55.534 17.2435L55.9393 16.9951C56.0966 16.8987 56.2963 17.0238 56.2773 17.2068L56.2284 17.6785C56.2208 17.7512 56.2496 17.8228 56.3054 17.8702L56.6675 18.1775C56.8079 18.2968 56.7502 18.5248 56.5697 18.5635L56.1046 18.6631C56.0329 18.6785 55.9734 18.728 55.9454 18.7955L55.7639 19.2339C55.6935 19.404 55.458 19.4198 55.3654 19.2607L55.1268 18.8507C55.0901 18.7875 55.0246 18.7464 54.9515 18.7408L54.4772 18.7044C54.2933 18.6903 54.2055 18.472 54.3287 18.3351L54.6465 17.982C54.6954 17.9276 54.7144 17.8526 54.6972 17.7816L54.5857 17.3208C54.5424 17.142 54.7236 16.9913 54.8922 17.0657Z" fill="#FFA909"/>
</g>
</g>
</g>
<path d="M92 35C92 51.8447 78.3447 65.5 61.5 65.5C44.6553 65.5 31 51.8447 31 35C31 18.1553 44.6553 4.5 61.5 4.5C78.3447 4.5 92 18.1553 92 35ZM35.575 35C35.575 49.318 47.182 60.925 61.5 60.925C75.818 60.925 87.425 49.318 87.425 35C87.425 20.682 75.818 9.075 61.5 9.075C47.182 9.075 35.575 20.682 35.575 35Z" fill="#86BF3E"/>
<path d="M72.6666 27.5L57.9999 42.1667L51.3333 35.5" stroke="#86BF3E" stroke-width="4" stroke-linecap="square" stroke-linejoin="round"/>
</g>
<defs>
<clipPath id="clip0_131_12874">
<rect width="123" height="69" fill="white" transform="translate(0 0.5)"/>
</clipPath>
</defs>
</svg>
