<svg width="25" height="24" viewBox="0 0 25 24" fill="none" xmlns="http://www.w3.org/2000/svg">
<path d="M12.5 3C7.52976 3 3.50001 7.02975 3.50001 12C3.50001 13.6237 3.92901 15.1447 4.67976 16.4587C4.72938 16.5455 4.76118 16.6412 4.77329 16.7404C4.78539 16.8396 4.77756 16.9401 4.75026 17.0363L3.67101 20.8305L7.46676 19.7505C7.56286 19.7232 7.66345 19.7154 7.76262 19.7275C7.86179 19.7396 7.95755 19.7714 8.04426 19.821C9.4012 20.596 10.9373 21.0025 12.5 21C17.471 21 21.5 16.9703 21.5 12C21.5 7.02975 17.471 3 12.5 3ZM2.00001 12C2.00001 6.201 6.70101 1.5 12.5 1.5C18.299 1.5 23 6.201 23 12C23 17.799 18.299 22.5 12.5 22.5C10.724 22.5 9.04851 22.0583 7.58001 21.2782L3.43401 22.4573C3.24132 22.5119 3.03754 22.5141 2.84372 22.4636C2.6499 22.4131 2.47307 22.3118 2.33149 22.1702C2.18991 22.0285 2.08871 21.8516 2.03834 21.6578C1.98798 21.4639 1.99028 21.2602 2.04501 21.0675L3.22401 16.9222C2.41825 15.4068 1.99788 13.7163 2.00001 12ZM8.00001 9.75C8.00001 9.55109 8.07903 9.36032 8.21968 9.21967C8.36033 9.07902 8.5511 9 8.75001 9H16.25C16.4489 9 16.6397 9.07902 16.7803 9.21967C16.921 9.36032 17 9.55109 17 9.75C17 9.94891 16.921 10.1397 16.7803 10.2803C16.6397 10.421 16.4489 10.5 16.25 10.5H8.75001C8.5511 10.5 8.36033 10.421 8.21968 10.2803C8.07903 10.1397 8.00001 9.94891 8.00001 9.75ZM8.75001 13.5C8.5511 13.5 8.36033 13.579 8.21968 13.7197C8.07903 13.8603 8.00001 14.0511 8.00001 14.25C8.00001 14.4489 8.07903 14.6397 8.21968 14.7803C8.36033 14.921 8.5511 15 8.75001 15H13.25C13.4489 15 13.6397 14.921 13.7803 14.7803C13.921 14.6397 14 14.4489 14 14.25C14 14.0511 13.921 13.8603 13.7803 13.7197C13.6397 13.579 13.4489 13.5 13.25 13.5H8.75001Z" fill="#637663" fill-opacity="0.7"/>
</svg>
