<svg width="24" height="24" viewBox="0 0 24 24" fill="none" xmlns="http://www.w3.org/2000/svg">
<path d="M9.75 3.75H22.125V5.25H9.75V3.75ZM1.875 4.5C1.875 5.09334 2.05095 5.67336 2.38059 6.16671C2.71024 6.66006 3.17877 7.04458 3.72695 7.27164C4.27513 7.4987 4.87833 7.55811 5.46027 7.44236C6.04221 7.3266 6.57676 7.04088 6.99632 6.62132C7.41588 6.20176 7.7016 5.66721 7.81736 5.08527C7.93311 4.50333 7.8737 3.90013 7.64664 3.35195C7.41958 2.80377 7.03506 2.33524 6.54171 2.00559C6.04836 1.67595 5.46834 1.5 4.875 1.5C4.07962 1.50089 3.31708 1.81725 2.75467 2.37967C2.19225 2.94208 1.87589 3.70462 1.875 4.5ZM4.875 3C5.17167 3 5.46168 3.08797 5.70836 3.2528C5.95503 3.41762 6.14729 3.65189 6.26082 3.92597C6.37435 4.20006 6.40406 4.50166 6.34618 4.79264C6.2883 5.08361 6.14544 5.35088 5.93566 5.56066C5.72588 5.77044 5.45861 5.9133 5.16764 5.97118C4.87666 6.02906 4.57506 5.99935 4.30097 5.88582C4.02689 5.77229 3.79262 5.58003 3.6278 5.33336C3.46297 5.08668 3.375 4.79667 3.375 4.5C3.37545 4.10231 3.53363 3.72104 3.81483 3.43983C4.09604 3.15863 4.47731 3.00045 4.875 3ZM9.75 11.25H22.125V12.75H9.75V11.25ZM4.875 15C5.46834 15 6.04836 14.8241 6.54171 14.4944C7.03506 14.1648 7.41958 13.6962 7.64664 13.1481C7.8737 12.5999 7.93311 11.9967 7.81736 11.4147C7.7016 10.8328 7.41588 10.2982 6.99632 9.87868C6.57676 9.45912 6.04221 9.1734 5.46027 9.05764C4.87833 8.94189 4.27513 9.0013 3.72695 9.22836C3.17877 9.45542 2.71024 9.83994 2.38059 10.3333C2.05095 10.8266 1.875 11.4067 1.875 12C1.87589 12.7954 2.19225 13.5579 2.75467 14.1203C3.31708 14.6827 4.07962 14.9991 4.875 15ZM4.875 10.5C5.17167 10.5 5.46168 10.588 5.70836 10.7528C5.95503 10.9176 6.14729 11.1519 6.26082 11.426C6.37435 11.7001 6.40406 12.0017 6.34618 12.2926C6.2883 12.5836 6.14544 12.8509 5.93566 13.0607C5.72588 13.2704 5.45861 13.4133 5.16764 13.4712C4.87666 13.5291 4.57506 13.4994 4.30097 13.3858C4.02689 13.2723 3.79262 13.08 3.6278 12.8334C3.46297 12.5867 3.375 12.2967 3.375 12C3.37545 11.6023 3.53363 11.221 3.81483 10.9398C4.09604 10.6586 4.47731 10.5004 4.875 10.5ZM9.75 18.75H22.125V20.25H9.75V18.75ZM4.875 22.5C5.46834 22.5 6.04836 22.3241 6.54171 21.9944C7.03506 21.6648 7.41958 21.1962 7.64664 20.6481C7.8737 20.0999 7.93311 19.4967 7.81736 18.9147C7.7016 18.3328 7.41588 17.7982 6.99632 17.3787C6.57676 16.9591 6.04221 16.6734 5.46027 16.5576C4.87833 16.4419 4.27513 16.5013 3.72695 16.7284C3.17877 16.9554 2.71024 17.3399 2.38059 17.8333C2.05095 18.3266 1.875 18.9067 1.875 19.5C1.87589 20.2954 2.19225 21.0579 2.75467 21.6203C3.31708 22.1828 4.07962 22.4991 4.875 22.5ZM4.875 18C5.17167 18 5.46168 18.088 5.70836 18.2528C5.95503 18.4176 6.14729 18.6519 6.26082 18.926C6.37435 19.2001 6.40406 19.5017 6.34618 19.7926C6.2883 20.0836 6.14544 20.3509 5.93566 20.5607C5.72588 20.7704 5.45861 20.9133 5.16764 20.9712C4.87666 21.0291 4.57506 20.9994 4.30097 20.8858C4.02689 20.7723 3.79262 20.58 3.6278 20.3334C3.46297 20.0867 3.375 19.7967 3.375 19.5C3.37545 19.1023 3.53363 18.721 3.81483 18.4398C4.09604 18.1586 4.47731 18.0004 4.875 18Z" fill="#637663" fill-opacity="0.7"/>
</svg>
