<svg width="17" height="17" viewBox="0 0 17 17" fill="none" xmlns="http://www.w3.org/2000/svg">
<path d="M14.8958 6.00031C14.8981 7.04217 14.4968 8.04443 13.7759 8.79667C12.1232 10.5104 10.5198 12.2972 8.80612 13.9479C8.41273 14.3203 7.78914 14.3068 7.41336 13.9174L2.47404 8.79734C0.981067 7.24953 0.981067 4.75109 2.47404 3.20396C2.82689 2.83359 3.25128 2.53874 3.72149 2.33727C4.19169 2.13581 4.69791 2.03193 5.20945 2.03193C5.721 2.03193 6.22722 2.13581 6.69742 2.33727C7.16762 2.53874 7.59201 2.83359 7.94487 3.20396L8.12497 3.38948L8.3044 3.20396C8.65797 2.83447 9.08249 2.54016 9.55252 2.33865C10.0225 2.13714 10.5284 2.03259 11.0398 2.03125C12.069 2.03125 13.0528 2.45375 13.7752 3.20396C14.4963 3.95609 14.898 4.95836 14.8958 6.00031Z" stroke="white" stroke-width="1.5" stroke-linejoin="round"/>
</svg>
