<svg width="14" height="15" viewBox="0 0 14 15" fill="none" xmlns="http://www.w3.org/2000/svg">
<path d="M7 8.375C6.56735 8.375 6.14442 8.24671 5.78469 8.00634C5.42496 7.76598 5.14458 7.42433 4.97901 7.02462C4.81345 6.62491 4.77013 6.18507 4.85453 5.76074C4.93894 5.33641 5.14728 4.94663 5.45321 4.64071C5.75913 4.33478 6.14891 4.12644 6.57324 4.04203C6.99757 3.95763 7.43741 4.00095 7.83712 4.16651C8.23684 4.33208 8.57848 4.61246 8.81884 4.97219C9.05921 5.33192 9.1875 5.75485 9.1875 6.1875C9.18681 6.76745 8.95612 7.32345 8.54603 7.73353C8.13595 8.14362 7.57995 8.37431 7 8.375ZM7 4.875C6.74041 4.875 6.48665 4.95198 6.27082 5.0962C6.05498 5.24042 5.88675 5.4454 5.78741 5.68523C5.68807 5.92506 5.66208 6.18896 5.71272 6.44356C5.76336 6.69816 5.88837 6.93202 6.07192 7.11558C6.25548 7.29914 6.48935 7.42414 6.74395 7.47478C6.99855 7.52543 7.26245 7.49943 7.50227 7.40009C7.7421 7.30075 7.94709 7.13253 8.09131 6.91669C8.23553 6.70085 8.3125 6.44709 8.3125 6.1875C8.31215 5.83951 8.17376 5.50587 7.9277 5.25981C7.68163 5.01374 7.34799 4.87535 7 4.875Z" fill="#F85657"/>
<path d="M7 13.625L3.30926 9.27231C3.25797 9.20695 3.20722 9.14118 3.15701 9.075C2.52656 8.24453 2.18598 7.23016 2.18751 6.1875C2.18751 4.91115 2.69454 3.68707 3.59705 2.78455C4.49957 1.88203 5.72365 1.375 7 1.375C8.27636 1.375 9.50044 1.88203 10.403 2.78455C11.3055 3.68707 11.8125 4.91115 11.8125 6.1875C11.814 7.22969 11.4736 8.2436 10.8434 9.07369L10.843 9.075C10.843 9.075 10.7118 9.24738 10.6921 9.27056L7 13.625ZM3.85526 8.54781C3.85613 8.54781 3.95763 8.68256 3.98082 8.71144L7 12.2723L10.0231 8.70662C10.0424 8.68256 10.1448 8.54694 10.1452 8.5465C10.6602 7.86799 10.9385 7.03933 10.9375 6.1875C10.9375 5.14321 10.5227 4.14169 9.78424 3.40327C9.04581 2.66484 8.04429 2.25 7 2.25C5.95571 2.25 4.9542 2.66484 4.21577 3.40327C3.47735 4.14169 3.06251 5.14321 3.06251 6.1875C3.06159 7.03986 3.33978 7.86899 3.85526 8.54781Z" fill="#F85657"/>
</svg>
