<svg width="28" height="11" viewBox="0 0 28 11" fill="none" xmlns="http://www.w3.org/2000/svg">
<path d="M3.87798 3.80014L5.05127 1.4373C5.08542 1.36892 5.13795 1.31141 5.20296 1.27121C5.26797 1.23101 5.3429 1.20972 5.41933 1.20972C5.49577 1.20972 5.57069 1.23101 5.6357 1.27121C5.70072 1.31141 5.75324 1.36892 5.7874 1.4373L6.96069 3.80014L9.58366 4.1813C9.65931 4.19179 9.7305 4.22334 9.78908 4.27235C9.84766 4.32136 9.89129 4.38586 9.91498 4.45847C9.93866 4.53109 9.94146 4.6089 9.92304 4.68302C9.90462 4.75715 9.86574 4.82461 9.81082 4.87769L7.91314 6.71575L8.36114 9.31253C8.41849 9.64582 8.06624 9.89963 7.76501 9.74247L5.41933 8.51588L3.0732 9.74247C2.77243 9.90008 2.42017 9.64582 2.47753 9.31208L2.92553 6.7153L1.02785 4.87724C0.973197 4.82412 0.934544 4.75673 0.916284 4.68274C0.898023 4.60874 0.900888 4.53111 0.924551 4.45866C0.948214 4.38621 0.991727 4.32186 1.05014 4.27291C1.10856 4.22396 1.17954 4.19238 1.25501 4.18176C1.25501 4.18176 3.79354 3.87421 3.87798 3.80014Z" fill="#FFA909" stroke="#FFA909" stroke-width="0.722581" stroke-linecap="round" stroke-linejoin="round"/>
<path d="M14.8299 7.43034V6.79808L18.0635 2.66131H19.039L15.8325 6.79808L15.3719 6.65356H20.4209V7.43034H14.8299ZM18.3435 8.98389V7.43034L18.3706 6.65356V5.28066H19.2196V8.98389H18.3435ZM21.5542 9.03808C21.3856 9.03808 21.2411 8.98088 21.1207 8.86647C21.0003 8.74604 20.94 8.5955 20.94 8.41485C20.94 8.23421 21.0003 8.08668 21.1207 7.97227C21.2411 7.85787 21.3856 7.80066 21.5542 7.80066C21.7168 7.80066 21.8553 7.85787 21.9697 7.97227C22.0901 8.08668 22.1504 8.23421 22.1504 8.41485C22.1504 8.5955 22.0901 8.74604 21.9697 8.86647C21.8553 8.98088 21.7168 9.03808 21.5542 9.03808ZM24.8742 2.58905C25.4462 2.58905 25.9279 2.71249 26.3193 2.95937C26.7167 3.20625 27.0178 3.56453 27.2225 4.03421C27.4273 4.49787 27.5296 5.0669 27.5296 5.74131C27.5296 6.45787 27.4032 7.06303 27.1503 7.55679C26.8974 8.05055 26.5481 8.42389 26.1025 8.67679C25.657 8.92969 25.1361 9.05614 24.54 9.05614C24.2449 9.05614 23.9589 9.02604 23.6819 8.96582C23.4109 8.90561 23.1731 8.81227 22.9683 8.68582L23.3116 7.98131C23.4802 8.08969 23.6668 8.16797 23.8716 8.21614C24.0823 8.2583 24.3021 8.27937 24.5309 8.27937C25.1692 8.27937 25.678 8.08066 26.0574 7.68324C26.4367 7.2798 26.6264 6.68367 26.6264 5.89485C26.6264 5.7684 26.6204 5.61787 26.6083 5.44324C26.5963 5.26862 26.5692 5.097 26.5271 4.9284L26.8251 5.2355C26.7408 5.51249 26.5993 5.74733 26.4006 5.94002C26.2079 6.12668 25.9731 6.26819 25.6961 6.36453C25.4251 6.45485 25.1271 6.50002 24.8019 6.50002C24.3864 6.50002 24.0161 6.42174 23.6909 6.26518C23.3658 6.10862 23.1099 5.88883 22.9232 5.60582C22.7365 5.31679 22.6432 4.97657 22.6432 4.58518C22.6432 4.17571 22.7395 3.82346 22.9322 3.5284C23.1309 3.22733 23.3989 2.9955 23.7361 2.83292C24.0793 2.67034 24.4587 2.58905 24.8742 2.58905ZM24.9103 3.32066C24.6393 3.32066 24.3985 3.37184 24.1877 3.47421C23.977 3.57657 23.8114 3.71808 23.6909 3.89873C23.5765 4.07937 23.5193 4.29614 23.5193 4.54905C23.5193 4.92238 23.6488 5.22045 23.9077 5.44324C24.1666 5.66002 24.5159 5.7684 24.9554 5.7684C25.2445 5.7684 25.4974 5.71421 25.7142 5.60582C25.937 5.49743 26.1086 5.34991 26.229 5.16324C26.3554 4.97657 26.4187 4.76883 26.4187 4.54002C26.4187 4.31722 26.3615 4.1155 26.2471 3.93485C26.1326 3.75421 25.964 3.60668 25.7413 3.49227C25.5185 3.37786 25.2415 3.32066 24.9103 3.32066Z" fill="#FFA909"/>
</svg>
