<svg width="15" height="14" viewBox="0 0 15 14" fill="none" xmlns="http://www.w3.org/2000/svg">
<path d="M5.16669 6.41664C5.16669 6.26193 5.22815 6.11355 5.33755 6.00416C5.44694 5.89476 5.59532 5.8333 5.75003 5.8333H9.25003C9.40474 5.8333 9.55311 5.89476 9.66251 6.00416C9.7719 6.11355 9.83336 6.26193 9.83336 6.41664C9.83336 6.57135 9.7719 6.71972 9.66251 6.82911C9.55311 6.93851 9.40474 6.99997 9.25003 6.99997H5.75003C5.59532 6.99997 5.44694 6.93851 5.33755 6.82911C5.22815 6.71972 5.16669 6.57135 5.16669 6.41664ZM5.75003 8.16664C5.59532 8.16664 5.44694 8.22809 5.33755 8.33749C5.22815 8.44689 5.16669 8.59526 5.16669 8.74997C5.16669 8.90468 5.22815 9.05305 5.33755 9.16245C5.44694 9.27184 5.59532 9.3333 5.75003 9.3333H8.08336C8.23807 9.3333 8.38644 9.27184 8.49584 9.16245C8.60524 9.05305 8.66669 8.90468 8.66669 8.74997C8.66669 8.59526 8.60524 8.44689 8.49584 8.33749C8.38644 8.22809 8.23807 8.16664 8.08336 8.16664H5.75003ZM1.66669 6.99997C1.66699 5.72107 2.08756 4.4777 2.86368 3.46123C3.63981 2.44476 4.72847 1.71152 5.96213 1.37435C7.19578 1.03718 8.50606 1.11477 9.69129 1.59518C10.8765 2.0756 11.871 2.93221 12.5218 4.03318C13.1725 5.13414 13.4434 6.41846 13.2927 7.68845C13.1421 8.95845 12.5783 10.1437 11.688 11.0619C10.7978 11.9801 9.63044 12.5803 8.3657 12.77C7.10096 12.9598 5.8089 12.7287 4.68836 12.1123L2.42036 12.803C2.3192 12.8338 2.21156 12.8365 2.10897 12.8109C2.00637 12.7852 1.91268 12.7322 1.8379 12.6574C1.76312 12.5827 1.71008 12.489 1.68444 12.3864C1.65881 12.2838 1.66154 12.1761 1.69236 12.075L2.38303 9.80347C1.91164 8.94433 1.66522 7.97993 1.66669 6.99997ZM7.50003 2.3333C6.67162 2.33323 5.85813 2.55368 5.1431 2.972C4.42808 3.39032 3.83729 3.99144 3.43143 4.71361C3.02556 5.43578 2.81925 6.25297 2.83368 7.08125C2.84811 7.90953 3.08276 8.71904 3.51353 9.42664C3.55629 9.49693 3.5837 9.57547 3.59395 9.6571C3.6042 9.73874 3.59707 9.82162 3.57303 9.9003L3.12619 11.3691L4.59269 10.9223C4.67163 10.8983 4.75477 10.8912 4.83662 10.9017C4.91847 10.9121 4.99717 10.9398 5.06753 10.983C5.68257 11.3585 6.37622 11.5864 7.09411 11.649C7.812 11.7116 8.53463 11.607 9.20535 11.3436C9.87608 11.0802 10.4767 10.665 10.9601 10.1306C11.4435 9.59614 11.7966 8.95705 11.9917 8.26334C12.1868 7.56964 12.2186 6.84018 12.0846 6.13214C11.9506 5.4241 11.6544 4.75671 11.2193 4.18228C10.7842 3.60785 10.222 3.14199 9.57671 2.8212C8.93143 2.50041 8.22064 2.33342 7.50003 2.3333Z" fill="#637663"/>
</svg>
