<svg width="14" height="15" viewBox="0 0 14 15" fill="none" xmlns="http://www.w3.org/2000/svg">
<path d="M7 13.625C5.78859 13.625 4.60439 13.2658 3.59713 12.5928C2.58988 11.9197 1.80483 10.9631 1.34124 9.84394C0.877654 8.72474 0.756358 7.49321 0.992693 6.30507C1.22903 5.11694 1.81238 4.02557 2.66897 3.16897C3.52557 2.31238 4.61694 1.72903 5.80507 1.49269C6.99321 1.25636 8.22474 1.37765 9.34394 1.84124C10.4631 2.30483 11.4197 3.08988 12.0928 4.09713C12.7658 5.10439 13.125 6.28859 13.125 7.5C13.125 9.12445 12.4797 10.6824 11.331 11.831C10.1824 12.9797 8.62445 13.625 7 13.625ZM7 2.25C5.96165 2.25 4.94662 2.55791 4.08326 3.13479C3.2199 3.71166 2.547 4.5316 2.14964 5.49091C1.75228 6.45023 1.64831 7.50583 1.85088 8.52423C2.05345 9.54263 2.55347 10.4781 3.28769 11.2123C4.02192 11.9465 4.95738 12.4466 5.97578 12.6491C6.99418 12.8517 8.04978 12.7477 9.00909 12.3504C9.9684 11.953 10.7883 11.2801 11.3652 10.4167C11.9421 9.55339 12.25 8.53835 12.25 7.5C12.25 6.10762 11.6969 4.77226 10.7123 3.78769C9.72775 2.80313 8.39239 2.25 7 2.25Z" fill="#F85657"/>
<path d="M9.00813 10.125L6.5625 7.67937V3.5625H7.4375V7.31625L9.625 9.50813L9.00813 10.125Z" fill="#F85657"/>
</svg>
